<svg xmlns="http://www.w3.org/2000/svg" xmlns:xlink="http://www.w3.org/1999/xlink" width="600" height="400" viewBox="0 0 2400 1600">
<defs>
  <clipPath id="clip800">
    <rect x="0" y="0" width="2400" height="1600"></rect>
  </clipPath>
</defs>
<path clip-path="url(#clip800)" d="
M0 1600 L2400 1600 L2400 0 L0 0  Z
  " fill="#ffffff" fill-rule="evenodd" fill-opacity="1"></path>
<defs>
  <clipPath id="clip801">
    <rect x="480" y="0" width="1681" height="1600"></rect>
  </clipPath>
</defs>
<path clip-path="url(#clip800)" d="
M242.135 1423.18 L2352.76 1423.18 L2352.76 47.2441 L242.135 47.2441  Z
  " fill="#ffffff" fill-rule="evenodd" fill-opacity="1"></path>
<defs>
  <clipPath id="clip802">
    <rect x="242" y="47" width="2112" height="1377"></rect>
  </clipPath>
</defs>
<polyline clip-path="url(#clip802)" style="stroke:#000000; stroke-linecap:round; stroke-linejoin:round; stroke-width:2; stroke-opacity:0.1; fill:none" points="
  242.135,1423.18 242.135,47.2441 
  "></polyline>
<polyline clip-path="url(#clip802)" style="stroke:#000000; stroke-linecap:round; stroke-linejoin:round; stroke-width:2; stroke-opacity:0.1; fill:none" points="
  696.397,1423.18 696.397,47.2441 
  "></polyline>
<polyline clip-path="url(#clip802)" style="stroke:#000000; stroke-linecap:round; stroke-linejoin:round; stroke-width:2; stroke-opacity:0.1; fill:none" points="
  1017.61,1423.18 1017.61,47.2441 
  "></polyline>
<polyline clip-path="url(#clip802)" style="stroke:#000000; stroke-linecap:round; stroke-linejoin:round; stroke-width:2; stroke-opacity:0.1; fill:none" points="
  1338.82,1423.18 1338.82,47.2441 
  "></polyline>
<polyline clip-path="url(#clip802)" style="stroke:#000000; stroke-linecap:round; stroke-linejoin:round; stroke-width:2; stroke-opacity:0.1; fill:none" points="
  1732.22,1423.18 1732.22,47.2441 
  "></polyline>
<polyline clip-path="url(#clip802)" style="stroke:#000000; stroke-linecap:round; stroke-linejoin:round; stroke-width:2; stroke-opacity:0.1; fill:none" points="
  2125.62,1423.18 2125.62,47.2441 
  "></polyline>
<polyline clip-path="url(#clip802)" style="stroke:#000000; stroke-linecap:round; stroke-linejoin:round; stroke-width:2; stroke-opacity:0.1; fill:none" points="
  2352.76,1423.18 2352.76,47.2441 
  "></polyline>
<polyline clip-path="url(#clip800)" style="stroke:#000000; stroke-linecap:round; stroke-linejoin:round; stroke-width:4; stroke-opacity:1; fill:none" points="
  242.135,1423.18 2352.76,1423.18 
  "></polyline>
<polyline clip-path="url(#clip800)" style="stroke:#000000; stroke-linecap:round; stroke-linejoin:round; stroke-width:4; stroke-opacity:1; fill:none" points="
  242.135,1423.18 242.135,1404.28 
  "></polyline>
<polyline clip-path="url(#clip800)" style="stroke:#000000; stroke-linecap:round; stroke-linejoin:round; stroke-width:4; stroke-opacity:1; fill:none" points="
  696.397,1423.18 696.397,1404.28 
  "></polyline>
<polyline clip-path="url(#clip800)" style="stroke:#000000; stroke-linecap:round; stroke-linejoin:round; stroke-width:4; stroke-opacity:1; fill:none" points="
  1017.61,1423.18 1017.61,1404.28 
  "></polyline>
<polyline clip-path="url(#clip800)" style="stroke:#000000; stroke-linecap:round; stroke-linejoin:round; stroke-width:4; stroke-opacity:1; fill:none" points="
  1338.82,1423.18 1338.82,1404.28 
  "></polyline>
<polyline clip-path="url(#clip800)" style="stroke:#000000; stroke-linecap:round; stroke-linejoin:round; stroke-width:4; stroke-opacity:1; fill:none" points="
  1732.22,1423.18 1732.22,1404.28 
  "></polyline>
<polyline clip-path="url(#clip800)" style="stroke:#000000; stroke-linecap:round; stroke-linejoin:round; stroke-width:4; stroke-opacity:1; fill:none" points="
  2125.62,1423.18 2125.62,1404.28 
  "></polyline>
<polyline clip-path="url(#clip800)" style="stroke:#000000; stroke-linecap:round; stroke-linejoin:round; stroke-width:4; stroke-opacity:1; fill:none" points="
  2352.76,1423.18 2352.76,1404.28 
  "></polyline>
<path clip-path="url(#clip800)" d="M231.382 1485.58 L231.382 1451.02 L252.887 1451.02 L252.887 1454.96 L236.058 1454.96 L236.058 1485.58 L231.382 1485.58 Z" fill="#000000" fill-rule="evenodd" fill-opacity="1"></path><path clip-path="url(#clip800)" d="M683.225 1451.02 L687.901 1451.02 L687.901 1465.19 L704.892 1465.19 L704.892 1451.02 L709.568 1451.02 L709.568 1485.58 L704.892 1485.58 L704.892 1469.12 L687.901 1469.12 L687.901 1485.58 L683.225 1485.58 L683.225 1451.02 Z" fill="#000000" fill-rule="evenodd" fill-opacity="1"></path><path clip-path="url(#clip800)" d="M1004.53 1451.02 L1010.83 1451.02 L1026.15 1479.93 L1026.15 1451.02 L1030.69 1451.02 L1030.69 1485.58 L1024.39 1485.58 L1009.07 1456.67 L1009.07 1485.58 L1004.53 1485.58 L1004.53 1451.02 Z" fill="#000000" fill-rule="evenodd" fill-opacity="1"></path><path clip-path="url(#clip800)" d="M1328.07 1485.58 L1328.07 1451.02 L1349.57 1451.02 L1349.57 1454.96 L1332.74 1454.96 L1332.74 1485.58 L1328.07 1485.58 Z" fill="#000000" fill-rule="evenodd" fill-opacity="1"></path><path clip-path="url(#clip800)" d="M1725.74 1454.86 L1725.74 1467.85 L1731.62 1467.85 Q1734.88 1467.85 1736.67 1466.16 Q1738.45 1464.47 1738.45 1461.34 Q1738.45 1458.24 1736.67 1456.55 Q1734.88 1454.86 1731.62 1454.86 L1725.74 1454.86 M1721.07 1451.02 L1731.62 1451.02 Q1737.43 1451.02 1740.39 1453.66 Q1743.38 1456.27 1743.38 1461.34 Q1743.38 1466.46 1740.39 1469.08 Q1737.43 1471.69 1731.62 1471.69 L1725.74 1471.69 L1725.74 1485.58 L1721.07 1485.58 L1721.07 1451.02 Z" fill="#000000" fill-rule="evenodd" fill-opacity="1"></path><path clip-path="url(#clip800)" d="M2073.59 1451.02 L2078.26 1451.02 L2078.26 1465.19 L2095.25 1465.19 L2095.25 1451.02 L2099.93 1451.02 L2099.93 1485.58 L2095.25 1485.58 L2095.25 1469.12 L2078.26 1469.12 L2078.26 1485.58 L2073.59 1485.58 L2073.59 1451.02 Z" fill="#000000" fill-rule="evenodd" fill-opacity="1"></path><path clip-path="url(#clip800)" d="M2129.61 1449.35 L2129.61 1496.76 L2125.67 1496.76 L2125.67 1449.35 L2129.61 1449.35 Z" fill="#000000" fill-rule="evenodd" fill-opacity="1"></path><path clip-path="url(#clip800)" d="M2160.02 1454.86 L2160.02 1467.85 L2165.9 1467.85 Q2169.17 1467.85 2170.95 1466.16 Q2172.73 1464.47 2172.73 1461.34 Q2172.73 1458.24 2170.95 1456.55 Q2169.17 1454.86 2165.9 1454.86 L2160.02 1454.86 M2155.35 1451.02 L2165.9 1451.02 Q2171.71 1451.02 2174.68 1453.66 Q2177.66 1456.27 2177.66 1461.34 Q2177.66 1466.46 2174.68 1469.08 Q2171.71 1471.69 2165.9 1471.69 L2160.02 1471.69 L2160.02 1485.58 L2155.35 1485.58 L2155.35 1451.02 Z" fill="#000000" fill-rule="evenodd" fill-opacity="1"></path><path clip-path="url(#clip800)" d="M2339.68 1451.02 L2345.97 1451.02 L2361.3 1479.93 L2361.3 1451.02 L2365.83 1451.02 L2365.83 1485.58 L2359.54 1485.58 L2344.21 1456.67 L2344.21 1485.58 L2339.68 1485.58 L2339.68 1451.02 Z" fill="#000000" fill-rule="evenodd" fill-opacity="1"></path><path clip-path="url(#clip800)" d="M1099.11 1532.4 L1104.96 1532.4 L1112.28 1560.21 L1119.57 1532.4 L1126.48 1532.4 L1133.8 1560.21 L1141.09 1532.4 L1146.94 1532.4 L1137.62 1568.04 L1130.71 1568.04 L1123.04 1538.83 L1115.34 1568.04 L1108.43 1568.04 L1099.11 1532.4 Z" fill="#000000" fill-rule="evenodd" fill-opacity="1"></path><path clip-path="url(#clip800)" d="M1172.02 1550.12 Q1164.93 1550.12 1162.19 1551.75 Q1159.45 1553.37 1159.45 1557.29 Q1159.45 1560.4 1161.49 1562.25 Q1163.56 1564.07 1167.09 1564.07 Q1171.96 1564.07 1174.89 1560.63 Q1177.85 1557.16 1177.85 1551.43 L1177.85 1550.12 L1172.02 1550.12 M1183.71 1547.71 L1183.71 1568.04 L1177.85 1568.04 L1177.85 1562.63 Q1175.84 1565.88 1172.85 1567.44 Q1169.86 1568.97 1165.53 1568.97 Q1160.06 1568.97 1156.81 1565.91 Q1153.6 1562.82 1153.6 1557.67 Q1153.6 1551.65 1157.61 1548.6 Q1161.65 1545.54 1169.64 1545.54 L1177.85 1545.54 L1177.85 1544.97 Q1177.85 1540.93 1175.18 1538.73 Q1172.53 1536.5 1167.73 1536.5 Q1164.67 1536.5 1161.78 1537.23 Q1158.88 1537.97 1156.21 1539.43 L1156.21 1534.02 Q1159.42 1532.78 1162.44 1532.17 Q1165.47 1531.54 1168.33 1531.54 Q1176.07 1531.54 1179.89 1535.55 Q1183.71 1539.56 1183.71 1547.71 Z" fill="#000000" fill-rule="evenodd" fill-opacity="1"></path><path clip-path="url(#clip800)" d="M1191.57 1532.4 L1197.77 1532.4 L1208.91 1562.31 L1220.05 1532.4 L1226.26 1532.4 L1212.89 1568.04 L1204.94 1568.04 L1191.57 1532.4 Z" fill="#000000" fill-rule="evenodd" fill-opacity="1"></path><path clip-path="url(#clip800)" d="M1264.84 1548.76 L1264.84 1551.62 L1237.91 1551.62 Q1238.29 1557.67 1241.54 1560.85 Q1244.82 1564 1250.64 1564 Q1254.02 1564 1257.17 1563.17 Q1260.35 1562.35 1263.47 1560.69 L1263.47 1566.23 Q1260.32 1567.57 1257.01 1568.27 Q1253.7 1568.97 1250.29 1568.97 Q1241.76 1568.97 1236.76 1564 Q1231.8 1559.04 1231.8 1550.57 Q1231.8 1541.82 1236.51 1536.69 Q1241.25 1531.54 1249.27 1531.54 Q1256.47 1531.54 1260.64 1536.18 Q1264.84 1540.8 1264.84 1548.76 M1258.98 1547.04 Q1258.92 1542.23 1256.28 1539.37 Q1253.67 1536.5 1249.34 1536.5 Q1244.43 1536.5 1241.47 1539.27 Q1238.55 1542.04 1238.1 1547.07 L1258.98 1547.04 Z" fill="#000000" fill-rule="evenodd" fill-opacity="1"></path><path clip-path="url(#clip800)" d="M1290.97 1532.4 L1297.17 1532.4 L1308.31 1562.31 L1319.45 1532.4 L1325.66 1532.4 L1312.29 1568.04 L1304.34 1568.04 L1290.97 1532.4 Z" fill="#000000" fill-rule="evenodd" fill-opacity="1"></path><path clip-path="url(#clip800)" d="M1364.24 1548.76 L1364.24 1551.62 L1337.31 1551.62 Q1337.69 1557.67 1340.94 1560.85 Q1344.22 1564 1350.04 1564 Q1353.42 1564 1356.57 1563.17 Q1359.75 1562.35 1362.87 1560.69 L1362.87 1566.23 Q1359.72 1567.57 1356.41 1568.27 Q1353.1 1568.97 1349.69 1568.97 Q1341.16 1568.97 1336.16 1564 Q1331.2 1559.04 1331.2 1550.57 Q1331.2 1541.82 1335.91 1536.69 Q1340.65 1531.54 1348.67 1531.54 Q1355.87 1531.54 1360.04 1536.18 Q1364.24 1540.8 1364.24 1548.76 M1358.38 1547.04 Q1358.32 1542.23 1355.68 1539.37 Q1353.07 1536.5 1348.74 1536.5 Q1343.84 1536.5 1340.88 1539.27 Q1337.95 1542.04 1337.5 1547.07 L1358.38 1547.04 Z" fill="#000000" fill-rule="evenodd" fill-opacity="1"></path><path clip-path="url(#clip800)" d="M1399.5 1533.76 L1399.5 1539.24 Q1397.02 1537.87 1394.51 1537.2 Q1392.02 1536.5 1389.48 1536.5 Q1383.78 1536.5 1380.63 1540.13 Q1377.48 1543.73 1377.48 1550.25 Q1377.48 1556.78 1380.63 1560.4 Q1383.78 1564 1389.48 1564 Q1392.02 1564 1394.51 1563.33 Q1397.02 1562.63 1399.5 1561.26 L1399.5 1566.68 Q1397.05 1567.82 1394.41 1568.39 Q1391.8 1568.97 1388.84 1568.97 Q1380.79 1568.97 1376.05 1563.91 Q1371.3 1558.85 1371.3 1550.25 Q1371.3 1541.53 1376.08 1536.53 Q1380.88 1531.54 1389.22 1531.54 Q1391.93 1531.54 1394.51 1532.11 Q1397.08 1532.65 1399.5 1533.76 Z" fill="#000000" fill-rule="evenodd" fill-opacity="1"></path><path clip-path="url(#clip800)" d="M1415.48 1522.27 L1415.48 1532.4 L1427.54 1532.4 L1427.54 1536.95 L1415.48 1536.95 L1415.48 1556.3 Q1415.48 1560.66 1416.66 1561.9 Q1417.87 1563.14 1421.53 1563.14 L1427.54 1563.14 L1427.54 1568.04 L1421.53 1568.04 Q1414.75 1568.04 1412.17 1565.53 Q1409.59 1562.98 1409.59 1556.3 L1409.59 1536.95 L1405.3 1536.95 L1405.3 1532.4 L1409.59 1532.4 L1409.59 1522.27 L1415.48 1522.27 Z" fill="#000000" fill-rule="evenodd" fill-opacity="1"></path><path clip-path="url(#clip800)" d="M1449.06 1536.5 Q1444.35 1536.5 1441.61 1540.19 Q1438.88 1543.85 1438.88 1550.25 Q1438.88 1556.65 1441.58 1560.34 Q1444.32 1564 1449.06 1564 Q1453.74 1564 1456.48 1560.31 Q1459.21 1556.62 1459.21 1550.25 Q1459.21 1543.92 1456.48 1540.23 Q1453.74 1536.5 1449.06 1536.5 M1449.06 1531.54 Q1456.7 1531.54 1461.06 1536.5 Q1465.42 1541.47 1465.42 1550.25 Q1465.42 1559 1461.06 1564 Q1456.7 1568.97 1449.06 1568.97 Q1441.39 1568.97 1437.03 1564 Q1432.7 1559 1432.7 1550.25 Q1432.7 1541.47 1437.03 1536.5 Q1441.39 1531.54 1449.06 1531.54 Z" fill="#000000" fill-rule="evenodd" fill-opacity="1"></path><path clip-path="url(#clip800)" d="M1495.78 1537.87 Q1494.8 1537.3 1493.62 1537.04 Q1492.47 1536.76 1491.07 1536.76 Q1486.11 1536.76 1483.44 1540 Q1480.79 1543.22 1480.79 1549.27 L1480.79 1568.04 L1474.91 1568.04 L1474.91 1532.4 L1480.79 1532.4 L1480.79 1537.93 Q1482.64 1534.69 1485.6 1533.13 Q1488.56 1531.54 1492.79 1531.54 Q1493.4 1531.54 1494.13 1531.63 Q1494.86 1531.7 1495.75 1531.85 L1495.78 1537.87 Z" fill="#000000" fill-rule="evenodd" fill-opacity="1"></path><polyline clip-path="url(#clip802)" style="stroke:#000000; stroke-linecap:round; stroke-linejoin:round; stroke-width:2; stroke-opacity:0.1; fill:none" points="
  242.135,1423.18 2352.76,1423.18 
  "></polyline>
<polyline clip-path="url(#clip802)" style="stroke:#000000; stroke-linecap:round; stroke-linejoin:round; stroke-width:2; stroke-opacity:0.1; fill:none" points="
  242.135,1079.2 2352.76,1079.2 
  "></polyline>
<polyline clip-path="url(#clip802)" style="stroke:#000000; stroke-linecap:round; stroke-linejoin:round; stroke-width:2; stroke-opacity:0.1; fill:none" points="
  242.135,735.212 2352.76,735.212 
  "></polyline>
<polyline clip-path="url(#clip802)" style="stroke:#000000; stroke-linecap:round; stroke-linejoin:round; stroke-width:2; stroke-opacity:0.1; fill:none" points="
  242.135,391.228 2352.76,391.228 
  "></polyline>
<polyline clip-path="url(#clip802)" style="stroke:#000000; stroke-linecap:round; stroke-linejoin:round; stroke-width:2; stroke-opacity:0.1; fill:none" points="
  242.135,47.2441 2352.76,47.2441 
  "></polyline>
<polyline clip-path="url(#clip800)" style="stroke:#000000; stroke-linecap:round; stroke-linejoin:round; stroke-width:4; stroke-opacity:1; fill:none" points="
  242.135,1423.18 242.135,47.2441 
  "></polyline>
<polyline clip-path="url(#clip800)" style="stroke:#000000; stroke-linecap:round; stroke-linejoin:round; stroke-width:4; stroke-opacity:1; fill:none" points="
  242.135,1423.18 261.032,1423.18 
  "></polyline>
<polyline clip-path="url(#clip800)" style="stroke:#000000; stroke-linecap:round; stroke-linejoin:round; stroke-width:4; stroke-opacity:1; fill:none" points="
  242.135,1079.2 261.032,1079.2 
  "></polyline>
<polyline clip-path="url(#clip800)" style="stroke:#000000; stroke-linecap:round; stroke-linejoin:round; stroke-width:4; stroke-opacity:1; fill:none" points="
  242.135,735.212 261.032,735.212 
  "></polyline>
<polyline clip-path="url(#clip800)" style="stroke:#000000; stroke-linecap:round; stroke-linejoin:round; stroke-width:4; stroke-opacity:1; fill:none" points="
  242.135,391.228 261.032,391.228 
  "></polyline>
<polyline clip-path="url(#clip800)" style="stroke:#000000; stroke-linecap:round; stroke-linejoin:round; stroke-width:4; stroke-opacity:1; fill:none" points="
  242.135,47.2441 261.032,47.2441 
  "></polyline>
<path clip-path="url(#clip800)" d="M114.26 1423.63 L143.936 1423.63 L143.936 1427.57 L114.26 1427.57 L114.26 1423.63 Z" fill="#000000" fill-rule="evenodd" fill-opacity="1"></path><path clip-path="url(#clip800)" d="M154.839 1436.52 L162.477 1436.52 L162.477 1410.16 L154.167 1411.83 L154.167 1407.57 L162.431 1405.9 L167.107 1405.9 L167.107 1436.52 L174.746 1436.52 L174.746 1440.46 L154.839 1440.46 L154.839 1436.52 Z" fill="#000000" fill-rule="evenodd" fill-opacity="1"></path><path clip-path="url(#clip800)" d="M194.19 1408.98 Q190.579 1408.98 188.75 1412.54 Q186.945 1416.08 186.945 1423.21 Q186.945 1430.32 188.75 1433.89 Q190.579 1437.43 194.19 1437.43 Q197.825 1437.43 199.63 1433.89 Q201.459 1430.32 201.459 1423.21 Q201.459 1416.08 199.63 1412.54 Q197.825 1408.98 194.19 1408.98 M194.19 1405.27 Q200 1405.27 203.056 1409.88 Q206.135 1414.46 206.135 1423.21 Q206.135 1431.94 203.056 1436.55 Q200 1441.13 194.19 1441.13 Q188.38 1441.13 185.301 1436.55 Q182.246 1431.94 182.246 1423.21 Q182.246 1414.46 185.301 1409.88 Q188.38 1405.27 194.19 1405.27 Z" fill="#000000" fill-rule="evenodd" fill-opacity="1"></path><path clip-path="url(#clip800)" d="M145.417 1079.65 L175.093 1079.65 L175.093 1083.58 L145.417 1083.58 L145.417 1079.65 Z" fill="#000000" fill-rule="evenodd" fill-opacity="1"></path><path clip-path="url(#clip800)" d="M185.232 1061.92 L203.588 1061.92 L203.588 1065.85 L189.514 1065.85 L189.514 1074.32 Q190.533 1073.98 191.551 1073.81 Q192.57 1073.63 193.588 1073.63 Q199.375 1073.63 202.755 1076.8 Q206.135 1079.97 206.135 1085.39 Q206.135 1090.97 202.662 1094.07 Q199.19 1097.15 192.871 1097.15 Q190.695 1097.15 188.426 1096.78 Q186.181 1096.41 183.774 1095.67 L183.774 1090.97 Q185.857 1092.1 188.079 1092.66 Q190.301 1093.21 192.778 1093.21 Q196.783 1093.21 199.121 1091.11 Q201.459 1089 201.459 1085.39 Q201.459 1081.78 199.121 1079.67 Q196.783 1077.56 192.778 1077.56 Q190.903 1077.56 189.028 1077.98 Q187.176 1078.4 185.232 1079.28 L185.232 1061.92 Z" fill="#000000" fill-rule="evenodd" fill-opacity="1"></path><path clip-path="url(#clip800)" d="M194.19 721.011 Q190.579 721.011 188.75 724.575 Q186.945 728.117 186.945 735.247 Q186.945 742.353 188.75 745.918 Q190.579 749.46 194.19 749.46 Q197.825 749.46 199.63 745.918 Q201.459 742.353 201.459 735.247 Q201.459 728.117 199.63 724.575 Q197.825 721.011 194.19 721.011 M194.19 717.307 Q200 717.307 203.056 721.913 Q206.135 726.497 206.135 735.247 Q206.135 743.973 203.056 748.58 Q200 753.163 194.19 753.163 Q188.38 753.163 185.301 748.58 Q182.246 743.973 182.246 735.247 Q182.246 726.497 185.301 721.913 Q188.38 717.307 194.19 717.307 Z" fill="#000000" fill-rule="evenodd" fill-opacity="1"></path><path clip-path="url(#clip800)" d="M185.232 373.948 L203.588 373.948 L203.588 377.883 L189.514 377.883 L189.514 386.355 Q190.533 386.008 191.551 385.846 Q192.57 385.661 193.588 385.661 Q199.375 385.661 202.755 388.832 Q206.135 392.003 206.135 397.42 Q206.135 402.999 202.662 406.101 Q199.19 409.179 192.871 409.179 Q190.695 409.179 188.426 408.809 Q186.181 408.439 183.774 407.698 L183.774 402.999 Q185.857 404.133 188.079 404.689 Q190.301 405.244 192.778 405.244 Q196.783 405.244 199.121 403.138 Q201.459 401.031 201.459 397.42 Q201.459 393.809 199.121 391.703 Q196.783 389.596 192.778 389.596 Q190.903 389.596 189.028 390.013 Q187.176 390.429 185.232 391.309 L185.232 373.948 Z" fill="#000000" fill-rule="evenodd" fill-opacity="1"></path><path clip-path="url(#clip800)" d="M154.839 60.5889 L162.477 60.5889 L162.477 34.2233 L154.167 35.89 L154.167 31.6308 L162.431 29.9641 L167.107 29.9641 L167.107 60.5889 L174.746 60.5889 L174.746 64.5241 L154.839 64.5241 L154.839 60.5889 Z" fill="#000000" fill-rule="evenodd" fill-opacity="1"></path><path clip-path="url(#clip800)" d="M194.19 33.0428 Q190.579 33.0428 188.75 36.6076 Q186.945 40.1492 186.945 47.2788 Q186.945 54.3853 188.75 57.9501 Q190.579 61.4917 194.19 61.4917 Q197.825 61.4917 199.63 57.9501 Q201.459 54.3853 201.459 47.2788 Q201.459 40.1492 199.63 36.6076 Q197.825 33.0428 194.19 33.0428 M194.19 29.3391 Q200 29.3391 203.056 33.9456 Q206.135 38.5289 206.135 47.2788 Q206.135 56.0056 203.056 60.6121 Q200 65.1954 194.19 65.1954 Q188.38 65.1954 185.301 60.6121 Q182.246 56.0056 182.246 47.2788 Q182.246 38.5289 185.301 33.9456 Q188.38 29.3391 194.19 29.3391 Z" fill="#000000" fill-rule="evenodd" fill-opacity="1"></path><path clip-path="url(#clip800)" d="M44.7161 1060.45 L47.5806 1060.45 L47.5806 1087.38 Q53.6281 1087 56.8109 1083.75 Q59.9619 1080.47 59.9619 1074.65 Q59.9619 1071.27 59.1344 1068.12 Q58.3069 1064.94 56.6518 1061.82 L62.1899 1061.82 Q63.5267 1064.97 64.227 1068.28 Q64.9272 1071.59 64.9272 1075 Q64.9272 1083.53 59.9619 1088.52 Q54.9967 1093.49 46.5303 1093.49 Q37.7774 1093.49 32.6531 1088.78 Q27.4968 1084.04 27.4968 1076.02 Q27.4968 1068.82 32.1438 1064.65 Q36.7589 1060.45 44.7161 1060.45 M42.9973 1066.31 Q38.1912 1066.37 35.3266 1069.01 Q32.4621 1071.62 32.4621 1075.95 Q32.4621 1080.85 35.2312 1083.81 Q38.0002 1086.74 43.0292 1087.19 L42.9973 1066.31 Z" fill="#000000" fill-rule="evenodd" fill-opacity="1"></path><path clip-path="url(#clip800)" d="M28.3562 1050.84 L28.3562 1044.98 L64.0042 1044.98 L64.0042 1050.84 L28.3562 1050.84 M14.479 1050.84 L14.479 1044.98 L21.895 1044.98 L21.895 1050.84 L14.479 1050.84 Z" fill="#000000" fill-rule="evenodd" fill-opacity="1"></path><path clip-path="url(#clip800)" d="M45.7664 1009.27 Q39.4007 1009.27 35.8996 1011.91 Q32.3984 1014.52 32.3984 1019.27 Q32.3984 1023.98 35.8996 1026.62 Q39.4007 1029.23 45.7664 1029.23 Q52.1003 1029.23 55.6014 1026.62 Q59.1026 1023.98 59.1026 1019.27 Q59.1026 1014.52 55.6014 1011.91 Q52.1003 1009.27 45.7664 1009.27 M59.58 1003.42 Q68.683 1003.42 73.1071 1007.46 Q77.5631 1011.5 77.5631 1019.84 Q77.5631 1022.93 77.0857 1025.66 Q76.6401 1028.4 75.6852 1030.98 L69.9879 1030.98 Q71.3884 1028.4 72.0568 1025.89 Q72.7252 1023.37 72.7252 1020.76 Q72.7252 1015 69.7015 1012.14 Q66.7096 1009.27 60.6303 1009.27 L57.7339 1009.27 Q60.885 1011.09 62.4446 1013.92 Q64.0042 1016.75 64.0042 1020.7 Q64.0042 1027.25 59.0071 1031.27 Q54.01 1035.28 45.7664 1035.28 Q37.491 1035.28 32.4939 1031.27 Q27.4968 1027.25 27.4968 1020.7 Q27.4968 1016.75 29.0564 1013.92 Q30.616 1011.09 33.7671 1009.27 L28.3562 1009.27 L28.3562 1003.42 L59.58 1003.42 Z" fill="#000000" fill-rule="evenodd" fill-opacity="1"></path><path clip-path="url(#clip800)" d="M44.7161 960.86 L47.5806 960.86 L47.5806 987.787 Q53.6281 987.405 56.8109 984.159 Q59.9619 980.881 59.9619 975.056 Q59.9619 971.682 59.1344 968.531 Q58.3069 965.348 56.6518 962.229 L62.1899 962.229 Q63.5267 965.38 64.227 968.69 Q64.9272 972 64.9272 975.406 Q64.9272 983.936 59.9619 988.933 Q54.9967 993.898 46.5303 993.898 Q37.7774 993.898 32.6531 989.188 Q27.4968 984.445 27.4968 976.425 Q27.4968 969.231 32.1438 965.062 Q36.7589 960.86 44.7161 960.86 M42.9973 966.717 Q38.1912 966.78 35.3266 969.422 Q32.4621 972.032 32.4621 976.361 Q32.4621 981.262 35.2312 984.222 Q38.0002 987.151 43.0292 987.596 L42.9973 966.717 Z" fill="#000000" fill-rule="evenodd" fill-opacity="1"></path><path clip-path="url(#clip800)" d="M42.4881 921.616 L64.0042 921.616 L64.0042 927.472 L42.679 927.472 Q37.6183 927.472 35.1038 929.446 Q32.5894 931.419 32.5894 935.366 Q32.5894 940.108 35.6131 942.845 Q38.6368 945.583 43.8567 945.583 L64.0042 945.583 L64.0042 951.471 L28.3562 951.471 L28.3562 945.583 L33.8944 945.583 Q30.6797 943.482 29.0883 940.649 Q27.4968 937.785 27.4968 934.061 Q27.4968 927.918 31.3163 924.767 Q35.1038 921.616 42.4881 921.616 Z" fill="#000000" fill-rule="evenodd" fill-opacity="1"></path><path clip-path="url(#clip800)" d="M28.3562 914.136 L28.3562 907.93 L58.275 896.79 L28.3562 885.65 L28.3562 879.443 L64.0042 892.811 L64.0042 900.768 L28.3562 914.136 Z" fill="#000000" fill-rule="evenodd" fill-opacity="1"></path><path clip-path="url(#clip800)" d="M46.0847 855.158 Q46.0847 862.256 47.7079 864.993 Q49.3312 867.73 53.2461 867.73 Q56.3653 867.73 58.2114 865.693 Q60.0256 863.624 60.0256 860.091 Q60.0256 855.221 56.5881 852.293 Q53.1188 849.333 47.3897 849.333 L46.0847 849.333 L46.0847 855.158 M43.6657 843.477 L64.0042 843.477 L64.0042 849.333 L58.5933 849.333 Q61.8398 851.338 63.3994 854.33 Q64.9272 857.322 64.9272 861.651 Q64.9272 867.125 61.8716 870.372 Q58.7843 873.587 53.6281 873.587 Q47.6125 873.587 44.5569 869.576 Q41.5014 865.534 41.5014 857.545 L41.5014 849.333 L40.9285 849.333 Q36.8862 849.333 34.6901 852.007 Q32.4621 854.649 32.4621 859.455 Q32.4621 862.51 33.1941 865.407 Q33.9262 868.303 35.3903 870.977 L29.9795 870.977 Q28.7381 867.762 28.1334 864.738 Q27.4968 861.714 27.4968 858.85 Q27.4968 851.116 31.5072 847.296 Q35.5176 843.477 43.6657 843.477 Z" fill="#000000" fill-rule="evenodd" fill-opacity="1"></path><path clip-path="url(#clip800)" d="M14.479 831.414 L14.479 825.557 L64.0042 825.557 L64.0042 831.414 L14.479 831.414 Z" fill="#000000" fill-rule="evenodd" fill-opacity="1"></path><path clip-path="url(#clip800)" d="M49.9359 813.908 L28.3562 813.908 L28.3562 808.052 L49.7131 808.052 Q54.7739 808.052 57.3202 806.078 Q59.8346 804.105 59.8346 800.158 Q59.8346 795.416 56.8109 792.678 Q53.7872 789.909 48.5673 789.909 L28.3562 789.909 L28.3562 784.053 L64.0042 784.053 L64.0042 789.909 L58.5296 789.909 Q61.7762 792.042 63.3676 794.875 Q64.9272 797.675 64.9272 801.399 Q64.9272 807.542 61.1078 810.725 Q57.2883 813.908 49.9359 813.908 M27.4968 799.171 L27.4968 799.171 Z" fill="#000000" fill-rule="evenodd" fill-opacity="1"></path><path clip-path="url(#clip800)" d="M44.7161 741.498 L47.5806 741.498 L47.5806 768.425 Q53.6281 768.043 56.8109 764.797 Q59.9619 761.518 59.9619 755.694 Q59.9619 752.32 59.1344 749.169 Q58.3069 745.986 56.6518 742.867 L62.1899 742.867 Q63.5267 746.018 64.227 749.328 Q64.9272 752.638 64.9272 756.044 Q64.9272 764.574 59.9619 769.571 Q54.9967 774.536 46.5303 774.536 Q37.7774 774.536 32.6531 769.825 Q27.4968 765.083 27.4968 757.062 Q27.4968 749.869 32.1438 745.699 Q36.7589 741.498 44.7161 741.498 M42.9973 747.355 Q38.1912 747.418 35.3266 750.06 Q32.4621 752.67 32.4621 756.999 Q32.4621 761.9 35.2312 764.86 Q38.0002 767.788 43.0292 768.234 L42.9973 747.355 Z" fill="#000000" fill-rule="evenodd" fill-opacity="1"></path><path clip-path="url(#clip800)" d="M29.4065 709.16 L34.9447 709.16 Q33.6716 711.643 33.035 714.317 Q32.3984 716.99 32.3984 719.855 Q32.3984 724.215 33.7352 726.411 Q35.072 728.576 37.7456 728.576 Q39.7826 728.576 40.9603 727.016 Q42.1061 725.457 43.1565 720.746 L43.6021 718.741 Q44.9389 712.502 47.3897 709.892 Q49.8086 707.251 54.1691 707.251 Q59.1344 707.251 62.0308 711.197 Q64.9272 715.112 64.9272 721.987 Q64.9272 724.852 64.3543 727.971 Q63.8132 731.058 62.6992 734.496 L56.6518 734.496 Q58.3387 731.249 59.198 728.098 Q60.0256 724.947 60.0256 721.86 Q60.0256 717.722 58.6251 715.494 Q57.1929 713.266 54.6147 713.266 Q52.2276 713.266 50.9545 714.889 Q49.6813 716.481 48.5037 721.924 L48.0262 723.961 Q46.8804 729.403 44.5251 731.822 Q42.138 734.241 38.0002 734.241 Q32.9713 734.241 30.2341 730.676 Q27.4968 727.112 27.4968 720.555 Q27.4968 717.308 27.9743 714.444 Q28.4517 711.579 29.4065 709.16 Z" fill="#000000" fill-rule="evenodd" fill-opacity="1"></path><path clip-path="url(#clip800)" d="M43.5384 680.165 L43.5384 663.009 L48.7583 663.009 L48.7583 680.165 L43.5384 680.165 Z" fill="#000000" fill-rule="evenodd" fill-opacity="1"></path><path clip-path="url(#clip800)" d="M44.7797 626.533 Q44.0158 630.098 41.947 632.008 Q39.91 633.918 36.9499 633.918 Q32.4621 633.918 29.9476 630.289 Q27.465 626.693 27.465 620.454 Q27.465 618.035 27.8469 615.33 Q28.2289 612.624 28.9928 609.505 L34.3081 609.505 Q33.3851 612.593 32.9713 615.139 Q32.5576 617.717 32.5576 619.977 Q32.5576 623.764 34.0217 625.961 Q35.4858 628.189 37.5228 628.189 Q39.7508 628.189 41.1831 626.024 Q42.5836 623.892 42.5836 620.2 L42.5836 615.266 L47.4215 615.266 L47.4215 619.977 Q47.4215 624.337 49.0447 626.629 Q50.8271 629.112 53.6281 629.112 Q56.4926 629.112 58.275 626.438 Q60.0574 623.733 60.0574 618.926 Q60.0574 615.966 59.4845 613.261 Q58.8798 610.556 57.7021 608.296 L63.1448 608.296 Q64.036 611.16 64.4816 613.834 Q64.9272 616.539 64.9272 619.086 Q64.9272 626.661 62.0308 630.767 Q59.1344 634.873 53.6281 634.873 Q50.1906 634.873 47.8671 632.676 Q45.5436 630.48 44.7797 626.533 Z" fill="#000000" fill-rule="evenodd" fill-opacity="1"></path><path clip-path="url(#clip800)" d="M74.8259 570.643 L79.3773 570.643 L79.3773 604.508 L74.8259 604.508 L74.8259 570.643 Z" fill="#000000" fill-rule="evenodd" fill-opacity="1"></path><path clip-path="url(#clip800)" d="M14.479 547.089 L19.3487 547.089 L19.3487 552.691 Q19.3487 555.842 20.6219 557.084 Q21.895 558.293 25.2052 558.293 L28.3562 558.293 L28.3562 548.649 L32.9077 548.649 L32.9077 558.293 L64.0042 558.293 L64.0042 564.181 L32.9077 564.181 L32.9077 569.783 L28.3562 569.783 L28.3562 564.181 L25.8736 564.181 Q19.9216 564.181 17.2162 561.412 Q14.479 558.643 14.479 552.628 L14.479 547.089 Z" fill="#000000" fill-rule="evenodd" fill-opacity="1"></path><path clip-path="url(#clip800)" d="M14.5426 486.679 Q21.8632 490.944 29.0246 493.013 Q36.186 495.082 43.5384 495.082 Q50.8908 495.082 58.1159 493.013 Q65.3091 490.912 72.5979 486.679 L72.5979 491.771 Q65.1182 496.546 57.8931 498.933 Q50.668 501.288 43.5384 501.288 Q36.4406 501.288 29.2474 498.933 Q22.0542 496.578 14.5426 491.771 L14.5426 486.679 Z" fill="#000000" fill-rule="evenodd" fill-opacity="1"></path><path clip-path="url(#clip800)" d="M44.7161 444.824 L47.5806 444.824 L47.5806 471.751 Q53.6281 471.369 56.8109 468.123 Q59.9619 464.844 59.9619 459.02 Q59.9619 455.646 59.1344 452.495 Q58.3069 449.312 56.6518 446.193 L62.1899 446.193 Q63.5267 449.344 64.227 452.654 Q64.9272 455.964 64.9272 459.37 Q64.9272 467.9 59.9619 472.897 Q54.9967 477.862 46.5303 477.862 Q37.7774 477.862 32.6531 473.152 Q27.4968 468.409 27.4968 460.388 Q27.4968 453.195 32.1438 449.026 Q36.7589 444.824 44.7161 444.824 M42.9973 450.681 Q38.1912 450.744 35.3266 453.386 Q32.4621 455.996 32.4621 460.325 Q32.4621 465.226 35.2312 468.186 Q38.0002 471.115 43.0292 471.56 L42.9973 450.681 Z" fill="#000000" fill-rule="evenodd" fill-opacity="1"></path><path clip-path="url(#clip800)" d="M64.0042 422.704 L16.4842 440.846 L16.4842 434.13 L56.4926 419.075 L16.4842 403.988 L16.4842 397.304 L64.0042 415.415 L64.0042 422.704 Z" fill="#000000" fill-rule="evenodd" fill-opacity="1"></path><path clip-path="url(#clip800)" d="M14.5426 391.543 L14.5426 386.451 Q22.0542 381.677 29.2474 379.321 Q36.4406 376.934 43.5384 376.934 Q50.668 376.934 57.8931 379.321 Q65.1182 381.677 72.5979 386.451 L72.5979 391.543 Q65.3091 387.31 58.1159 385.241 Q50.8908 383.141 43.5384 383.141 Q36.186 383.141 29.0246 385.241 Q21.8632 387.31 14.5426 391.543 Z" fill="#000000" fill-rule="evenodd" fill-opacity="1"></path><polyline clip-path="url(#clip802)" style="stroke:#0000ff; stroke-linecap:round; stroke-linejoin:round; stroke-width:4; stroke-opacity:1; fill:none" points="
  242.135,4453.66 307.029,4453.65 371.924,4453.63 436.818,4453.59 501.713,4453.56 566.608,4453.53 631.502,4453.51 696.397,4453.5 760.639,4453.51 824.881,4453.53 
  889.124,4453.55 953.366,4453.57 1017.61,4453.57 1081.85,4453.58 1146.09,4453.6 1210.34,4453.63 1274.58,4453.65 1338.82,4453.66 1404.39,4453.65 1469.95,4453.63 
  1535.52,4453.6 1601.09,4453.58 1666.66,4453.57 1732.22,4453.57 1797.79,4453.57 1863.36,4453.56 1928.92,4453.55 1994.49,4453.53 2060.06,4453.51 2125.62,4453.5 
  
  "></polyline>
<polyline clip-path="url(#clip802)" style="stroke:#0000ff; stroke-linecap:round; stroke-linejoin:round; stroke-width:4; stroke-opacity:1; fill:none" points="
  2125.62,4453.57 2201.34,4453.57 2277.05,4453.57 2352.76,4453.57 
  "></polyline>
<polyline clip-path="url(#clip802)" style="stroke:#0000ff; stroke-linecap:round; stroke-linejoin:round; stroke-width:4; stroke-opacity:1; fill:none" points="
  242.135,2464.86 307.029,2466.99 371.924,2468.08 436.818,2464.02 501.713,2465.87 566.608,2466.9 631.502,2468.74 696.397,2462.71 760.639,2468.3 824.881,2469.38 
  889.124,2467.99 953.366,2468.43 1017.61,2469.96 1081.85,2465.25 1146.09,2467.48 1210.34,2466.92 1274.58,2466.55 1338.82,2464.86 1404.39,2466.29 1469.95,2468.12 
  1535.52,2466.67 1601.09,2468.6 1666.66,2469.25 1732.22,2468.17 1797.79,2467.7 1863.36,2467.28 1928.92,2468.58 1994.49,2465.97 2060.06,2468.49 2125.62,2462.71 
  
  "></polyline>
<polyline clip-path="url(#clip802)" style="stroke:#0000ff; stroke-linecap:round; stroke-linejoin:round; stroke-width:4; stroke-opacity:1; fill:none" points="
  2125.62,2468.17 2201.34,2468.18 2277.05,2470.53 2352.76,2469.96 
  "></polyline>
<polyline clip-path="url(#clip802)" style="stroke:#0000ff; stroke-linecap:round; stroke-linejoin:round; stroke-width:4; stroke-opacity:1; fill:none" points="
  242.135,2464.86 307.029,2465.2 371.924,2464.42 436.818,2464.02 501.713,2465.43 566.608,2465.69 631.502,2466.51 696.397,2462.71 760.639,2464.72 824.881,2468.43 
  889.124,2465.9 953.366,2467.27 1017.61,2467.88 1081.85,2464.42 1146.09,2465.95 1210.34,2466.48 1274.58,2466.5 1338.82,2464.86 1404.39,2466.29 1469.95,2468.12 
  1535.52,2466.67 1601.09,2467.71 1666.66,2469.25 1732.22,2468.17 1797.79,2467.7 1863.36,2467.28 1928.92,2468.58 1994.49,2465.54 2060.06,2465.3 2125.62,2462.71 
  
  "></polyline>
<polyline clip-path="url(#clip802)" style="stroke:#0000ff; stroke-linecap:round; stroke-linejoin:round; stroke-width:4; stroke-opacity:1; fill:none" points="
  2125.62,2468.17 2201.34,2467.94 2277.05,2468.81 2352.76,2467.88 
  "></polyline>
<polyline clip-path="url(#clip802)" style="stroke:#0000ff; stroke-linecap:round; stroke-linejoin:round; stroke-width:4; stroke-opacity:1; fill:none" points="
  242.135,2464.86 307.029,2465.2 371.924,2464.42 436.818,2463.8 501.713,2465.43 566.608,2465.69 631.502,2466.51 696.397,2462.71 760.639,2464.56 824.881,2468.08 
  889.124,2465.16 953.366,2465.27 1017.61,2466.16 1081.85,2463.73 1146.09,2463.78 1210.34,2465.13 1274.58,2465.97 1338.82,2464.86 1404.39,2465.27 1469.95,2466.91 
  1535.52,2464.5 1601.09,2467.71 1666.66,2467.07 1732.22,2468.17 1797.79,2466.59 1863.36,2466.23 1928.92,2465.85 1994.49,2465.54 2060.06,2465.3 2125.62,2462.71 
  
  "></polyline>
<polyline clip-path="url(#clip802)" style="stroke:#0000ff; stroke-linecap:round; stroke-linejoin:round; stroke-width:4; stroke-opacity:1; fill:none" points="
  2125.62,2468.17 2201.34,2466.64 2277.05,2466.91 2352.76,2466.16 
  "></polyline>
<polyline clip-path="url(#clip802)" style="stroke:#0000ff; stroke-linecap:round; stroke-linejoin:round; stroke-width:4; stroke-opacity:1; fill:none" points="
  242.135,953.62 307.029,941.705 371.924,906.179 436.818,847.575 501.713,767.06 566.608,665.973 631.502,547.216 696.397,429.568 760.639,514.701 824.881,588.214 
  889.124,640.189 953.366,671.385 1017.61,681.897 1081.85,770.671 1146.09,849.712 1210.34,907.105 1274.58,941.938 1338.82,953.62 1404.39,941.45 1469.95,905.187 
  1535.52,845.411 1601.09,763.433 1666.66,660.964 1732.22,551.82 1797.79,584.358 1863.36,595.111 1928.92,584.277 1994.49,551.34 2060.06,496.883 2125.62,429.568 
  
  "></polyline>
<circle clip-path="url(#clip802)" cx="242.135" cy="953.62" r="7.2" fill="#0000ff" fill-rule="evenodd" fill-opacity="1" stroke="#000000" stroke-opacity="1" stroke-width="3.2"></circle>
<circle clip-path="url(#clip802)" cx="307.029" cy="941.705" r="7.2" fill="#0000ff" fill-rule="evenodd" fill-opacity="1" stroke="#000000" stroke-opacity="1" stroke-width="3.2"></circle>
<circle clip-path="url(#clip802)" cx="371.924" cy="906.179" r="7.2" fill="#0000ff" fill-rule="evenodd" fill-opacity="1" stroke="#000000" stroke-opacity="1" stroke-width="3.2"></circle>
<circle clip-path="url(#clip802)" cx="436.818" cy="847.575" r="7.2" fill="#0000ff" fill-rule="evenodd" fill-opacity="1" stroke="#000000" stroke-opacity="1" stroke-width="3.2"></circle>
<circle clip-path="url(#clip802)" cx="501.713" cy="767.06" r="7.2" fill="#0000ff" fill-rule="evenodd" fill-opacity="1" stroke="#000000" stroke-opacity="1" stroke-width="3.2"></circle>
<circle clip-path="url(#clip802)" cx="566.608" cy="665.973" r="7.2" fill="#0000ff" fill-rule="evenodd" fill-opacity="1" stroke="#000000" stroke-opacity="1" stroke-width="3.2"></circle>
<circle clip-path="url(#clip802)" cx="631.502" cy="547.216" r="7.2" fill="#0000ff" fill-rule="evenodd" fill-opacity="1" stroke="#000000" stroke-opacity="1" stroke-width="3.2"></circle>
<circle clip-path="url(#clip802)" cx="696.397" cy="429.568" r="7.2" fill="#0000ff" fill-rule="evenodd" fill-opacity="1" stroke="#000000" stroke-opacity="1" stroke-width="3.2"></circle>
<circle clip-path="url(#clip802)" cx="760.639" cy="514.701" r="7.2" fill="#0000ff" fill-rule="evenodd" fill-opacity="1" stroke="#000000" stroke-opacity="1" stroke-width="3.2"></circle>
<circle clip-path="url(#clip802)" cx="824.881" cy="588.214" r="7.2" fill="#0000ff" fill-rule="evenodd" fill-opacity="1" stroke="#000000" stroke-opacity="1" stroke-width="3.2"></circle>
<circle clip-path="url(#clip802)" cx="889.124" cy="640.189" r="7.2" fill="#0000ff" fill-rule="evenodd" fill-opacity="1" stroke="#000000" stroke-opacity="1" stroke-width="3.2"></circle>
<circle clip-path="url(#clip802)" cx="953.366" cy="671.385" r="7.2" fill="#0000ff" fill-rule="evenodd" fill-opacity="1" stroke="#000000" stroke-opacity="1" stroke-width="3.2"></circle>
<circle clip-path="url(#clip802)" cx="1017.61" cy="681.897" r="7.2" fill="#0000ff" fill-rule="evenodd" fill-opacity="1" stroke="#000000" stroke-opacity="1" stroke-width="3.2"></circle>
<circle clip-path="url(#clip802)" cx="1081.85" cy="770.671" r="7.2" fill="#0000ff" fill-rule="evenodd" fill-opacity="1" stroke="#000000" stroke-opacity="1" stroke-width="3.2"></circle>
<circle clip-path="url(#clip802)" cx="1146.09" cy="849.712" r="7.2" fill="#0000ff" fill-rule="evenodd" fill-opacity="1" stroke="#000000" stroke-opacity="1" stroke-width="3.2"></circle>
<circle clip-path="url(#clip802)" cx="1210.34" cy="907.105" r="7.2" fill="#0000ff" fill-rule="evenodd" fill-opacity="1" stroke="#000000" stroke-opacity="1" stroke-width="3.2"></circle>
<circle clip-path="url(#clip802)" cx="1274.58" cy="941.938" r="7.2" fill="#0000ff" fill-rule="evenodd" fill-opacity="1" stroke="#000000" stroke-opacity="1" stroke-width="3.2"></circle>
<circle clip-path="url(#clip802)" cx="1338.82" cy="953.62" r="7.2" fill="#0000ff" fill-rule="evenodd" fill-opacity="1" stroke="#000000" stroke-opacity="1" stroke-width="3.2"></circle>
<circle clip-path="url(#clip802)" cx="1404.39" cy="941.45" r="7.2" fill="#0000ff" fill-rule="evenodd" fill-opacity="1" stroke="#000000" stroke-opacity="1" stroke-width="3.2"></circle>
<circle clip-path="url(#clip802)" cx="1469.95" cy="905.187" r="7.2" fill="#0000ff" fill-rule="evenodd" fill-opacity="1" stroke="#000000" stroke-opacity="1" stroke-width="3.2"></circle>
<circle clip-path="url(#clip802)" cx="1535.52" cy="845.411" r="7.2" fill="#0000ff" fill-rule="evenodd" fill-opacity="1" stroke="#000000" stroke-opacity="1" stroke-width="3.2"></circle>
<circle clip-path="url(#clip802)" cx="1601.09" cy="763.433" r="7.2" fill="#0000ff" fill-rule="evenodd" fill-opacity="1" stroke="#000000" stroke-opacity="1" stroke-width="3.2"></circle>
<circle clip-path="url(#clip802)" cx="1666.66" cy="660.964" r="7.2" fill="#0000ff" fill-rule="evenodd" fill-opacity="1" stroke="#000000" stroke-opacity="1" stroke-width="3.2"></circle>
<circle clip-path="url(#clip802)" cx="1732.22" cy="551.82" r="7.2" fill="#0000ff" fill-rule="evenodd" fill-opacity="1" stroke="#000000" stroke-opacity="1" stroke-width="3.2"></circle>
<circle clip-path="url(#clip802)" cx="1797.79" cy="584.358" r="7.2" fill="#0000ff" fill-rule="evenodd" fill-opacity="1" stroke="#000000" stroke-opacity="1" stroke-width="3.2"></circle>
<circle clip-path="url(#clip802)" cx="1863.36" cy="595.111" r="7.2" fill="#0000ff" fill-rule="evenodd" fill-opacity="1" stroke="#000000" stroke-opacity="1" stroke-width="3.2"></circle>
<circle clip-path="url(#clip802)" cx="1928.92" cy="584.277" r="7.2" fill="#0000ff" fill-rule="evenodd" fill-opacity="1" stroke="#000000" stroke-opacity="1" stroke-width="3.2"></circle>
<circle clip-path="url(#clip802)" cx="1994.49" cy="551.34" r="7.2" fill="#0000ff" fill-rule="evenodd" fill-opacity="1" stroke="#000000" stroke-opacity="1" stroke-width="3.2"></circle>
<circle clip-path="url(#clip802)" cx="2060.06" cy="496.883" r="7.2" fill="#0000ff" fill-rule="evenodd" fill-opacity="1" stroke="#000000" stroke-opacity="1" stroke-width="3.2"></circle>
<circle clip-path="url(#clip802)" cx="2125.62" cy="429.568" r="7.2" fill="#0000ff" fill-rule="evenodd" fill-opacity="1" stroke="#000000" stroke-opacity="1" stroke-width="3.2"></circle>
<polyline clip-path="url(#clip802)" style="stroke:#0000ff; stroke-linecap:round; stroke-linejoin:round; stroke-width:4; stroke-opacity:1; fill:none" points="
  2125.62,551.82 2201.34,624.157 2277.05,667.423 2352.76,681.897 
  "></polyline>
<circle clip-path="url(#clip802)" cx="2125.62" cy="551.82" r="7.2" fill="#0000ff" fill-rule="evenodd" fill-opacity="1" stroke="#000000" stroke-opacity="1" stroke-width="3.2"></circle>
<circle clip-path="url(#clip802)" cx="2201.34" cy="624.157" r="7.2" fill="#0000ff" fill-rule="evenodd" fill-opacity="1" stroke="#000000" stroke-opacity="1" stroke-width="3.2"></circle>
<circle clip-path="url(#clip802)" cx="2277.05" cy="667.423" r="7.2" fill="#0000ff" fill-rule="evenodd" fill-opacity="1" stroke="#000000" stroke-opacity="1" stroke-width="3.2"></circle>
<circle clip-path="url(#clip802)" cx="2352.76" cy="681.897" r="7.2" fill="#0000ff" fill-rule="evenodd" fill-opacity="1" stroke="#000000" stroke-opacity="1" stroke-width="3.2"></circle>
<polyline clip-path="url(#clip802)" style="stroke:#0000ff; stroke-linecap:round; stroke-linejoin:round; stroke-width:4; stroke-opacity:1; fill:none" points="
  242.135,-46.2893 307.029,45.7676 371.924,155.956 436.818,247.504 501.713,326.654 566.608,383.822 631.502,418.131 696.397,429.568 760.639,488.713 824.881,558.309 
  889.124,612.859 953.366,647.006 1017.61,658.56 1081.85,549.424 1146.09,410.979 1210.34,254.544 1274.58,83.1222 1338.82,-46.2892 1404.39,60.3857 1469.95,201.118 
  1535.52,321.864 1601.09,420.711 1666.66,497.405 1732.22,551.82 1797.79,584.358 1863.36,595.111 1928.92,584.277 1994.49,551.34 2060.06,496.883 2125.62,429.568 
  
  "></polyline>
<circle clip-path="url(#clip802)" cx="371.924" cy="155.956" r="7.2" fill="#0000ff" fill-rule="evenodd" fill-opacity="1" stroke="#000000" stroke-opacity="1" stroke-width="3.2"></circle>
<circle clip-path="url(#clip802)" cx="436.818" cy="247.504" r="7.2" fill="#0000ff" fill-rule="evenodd" fill-opacity="1" stroke="#000000" stroke-opacity="1" stroke-width="3.2"></circle>
<circle clip-path="url(#clip802)" cx="501.713" cy="326.654" r="7.2" fill="#0000ff" fill-rule="evenodd" fill-opacity="1" stroke="#000000" stroke-opacity="1" stroke-width="3.2"></circle>
<circle clip-path="url(#clip802)" cx="566.608" cy="383.822" r="7.2" fill="#0000ff" fill-rule="evenodd" fill-opacity="1" stroke="#000000" stroke-opacity="1" stroke-width="3.2"></circle>
<circle clip-path="url(#clip802)" cx="631.502" cy="418.131" r="7.2" fill="#0000ff" fill-rule="evenodd" fill-opacity="1" stroke="#000000" stroke-opacity="1" stroke-width="3.2"></circle>
<circle clip-path="url(#clip802)" cx="696.397" cy="429.568" r="7.2" fill="#0000ff" fill-rule="evenodd" fill-opacity="1" stroke="#000000" stroke-opacity="1" stroke-width="3.2"></circle>
<circle clip-path="url(#clip802)" cx="760.639" cy="488.713" r="7.2" fill="#0000ff" fill-rule="evenodd" fill-opacity="1" stroke="#000000" stroke-opacity="1" stroke-width="3.2"></circle>
<circle clip-path="url(#clip802)" cx="824.881" cy="558.309" r="7.2" fill="#0000ff" fill-rule="evenodd" fill-opacity="1" stroke="#000000" stroke-opacity="1" stroke-width="3.2"></circle>
<circle clip-path="url(#clip802)" cx="889.124" cy="612.859" r="7.2" fill="#0000ff" fill-rule="evenodd" fill-opacity="1" stroke="#000000" stroke-opacity="1" stroke-width="3.2"></circle>
<circle clip-path="url(#clip802)" cx="953.366" cy="647.006" r="7.2" fill="#0000ff" fill-rule="evenodd" fill-opacity="1" stroke="#000000" stroke-opacity="1" stroke-width="3.2"></circle>
<circle clip-path="url(#clip802)" cx="1017.61" cy="658.56" r="7.2" fill="#0000ff" fill-rule="evenodd" fill-opacity="1" stroke="#000000" stroke-opacity="1" stroke-width="3.2"></circle>
<circle clip-path="url(#clip802)" cx="1081.85" cy="549.424" r="7.2" fill="#0000ff" fill-rule="evenodd" fill-opacity="1" stroke="#000000" stroke-opacity="1" stroke-width="3.2"></circle>
<circle clip-path="url(#clip802)" cx="1146.09" cy="410.979" r="7.2" fill="#0000ff" fill-rule="evenodd" fill-opacity="1" stroke="#000000" stroke-opacity="1" stroke-width="3.2"></circle>
<circle clip-path="url(#clip802)" cx="1210.34" cy="254.544" r="7.2" fill="#0000ff" fill-rule="evenodd" fill-opacity="1" stroke="#000000" stroke-opacity="1" stroke-width="3.2"></circle>
<circle clip-path="url(#clip802)" cx="1274.58" cy="83.1222" r="7.2" fill="#0000ff" fill-rule="evenodd" fill-opacity="1" stroke="#000000" stroke-opacity="1" stroke-width="3.2"></circle>
<circle clip-path="url(#clip802)" cx="1404.39" cy="60.3857" r="7.2" fill="#0000ff" fill-rule="evenodd" fill-opacity="1" stroke="#000000" stroke-opacity="1" stroke-width="3.2"></circle>
<circle clip-path="url(#clip802)" cx="1469.95" cy="201.118" r="7.2" fill="#0000ff" fill-rule="evenodd" fill-opacity="1" stroke="#000000" stroke-opacity="1" stroke-width="3.2"></circle>
<circle clip-path="url(#clip802)" cx="1535.52" cy="321.864" r="7.2" fill="#0000ff" fill-rule="evenodd" fill-opacity="1" stroke="#000000" stroke-opacity="1" stroke-width="3.2"></circle>
<circle clip-path="url(#clip802)" cx="1601.09" cy="420.711" r="7.2" fill="#0000ff" fill-rule="evenodd" fill-opacity="1" stroke="#000000" stroke-opacity="1" stroke-width="3.2"></circle>
<circle clip-path="url(#clip802)" cx="1666.66" cy="497.405" r="7.2" fill="#0000ff" fill-rule="evenodd" fill-opacity="1" stroke="#000000" stroke-opacity="1" stroke-width="3.2"></circle>
<circle clip-path="url(#clip802)" cx="1732.22" cy="551.82" r="7.2" fill="#0000ff" fill-rule="evenodd" fill-opacity="1" stroke="#000000" stroke-opacity="1" stroke-width="3.2"></circle>
<circle clip-path="url(#clip802)" cx="1797.79" cy="584.358" r="7.2" fill="#0000ff" fill-rule="evenodd" fill-opacity="1" stroke="#000000" stroke-opacity="1" stroke-width="3.2"></circle>
<circle clip-path="url(#clip802)" cx="1863.36" cy="595.111" r="7.2" fill="#0000ff" fill-rule="evenodd" fill-opacity="1" stroke="#000000" stroke-opacity="1" stroke-width="3.2"></circle>
<circle clip-path="url(#clip802)" cx="1928.92" cy="584.277" r="7.2" fill="#0000ff" fill-rule="evenodd" fill-opacity="1" stroke="#000000" stroke-opacity="1" stroke-width="3.2"></circle>
<circle clip-path="url(#clip802)" cx="1994.49" cy="551.34" r="7.2" fill="#0000ff" fill-rule="evenodd" fill-opacity="1" stroke="#000000" stroke-opacity="1" stroke-width="3.2"></circle>
<circle clip-path="url(#clip802)" cx="2060.06" cy="496.883" r="7.2" fill="#0000ff" fill-rule="evenodd" fill-opacity="1" stroke="#000000" stroke-opacity="1" stroke-width="3.2"></circle>
<circle clip-path="url(#clip802)" cx="2125.62" cy="429.568" r="7.2" fill="#0000ff" fill-rule="evenodd" fill-opacity="1" stroke="#000000" stroke-opacity="1" stroke-width="3.2"></circle>
<polyline clip-path="url(#clip802)" style="stroke:#0000ff; stroke-linecap:round; stroke-linejoin:round; stroke-width:4; stroke-opacity:1; fill:none" points="
  2125.62,551.82 2201.34,597.665 2277.05,642.76 2352.76,658.56 
  "></polyline>
<circle clip-path="url(#clip802)" cx="2125.62" cy="551.82" r="7.2" fill="#0000ff" fill-rule="evenodd" fill-opacity="1" stroke="#000000" stroke-opacity="1" stroke-width="3.2"></circle>
<circle clip-path="url(#clip802)" cx="2201.34" cy="597.665" r="7.2" fill="#0000ff" fill-rule="evenodd" fill-opacity="1" stroke="#000000" stroke-opacity="1" stroke-width="3.2"></circle>
<circle clip-path="url(#clip802)" cx="2277.05" cy="642.76" r="7.2" fill="#0000ff" fill-rule="evenodd" fill-opacity="1" stroke="#000000" stroke-opacity="1" stroke-width="3.2"></circle>
<circle clip-path="url(#clip802)" cx="2352.76" cy="658.56" r="7.2" fill="#0000ff" fill-rule="evenodd" fill-opacity="1" stroke="#000000" stroke-opacity="1" stroke-width="3.2"></circle>
<polyline clip-path="url(#clip802)" style="stroke:#0000ff; stroke-linecap:round; stroke-linejoin:round; stroke-width:4; stroke-opacity:1; fill:none" points="
  242.135,-46.2893 307.029,45.7676 371.924,155.956 436.818,247.504 501.713,318.699 566.608,369.202 631.502,399.447 696.397,408.927 760.639,399.404 824.881,370.374 
  889.124,320.92 953.366,252.65 1017.61,186.584 1081.85,175.552 1146.09,142.565 1210.34,88.1353 1274.58,14.7733 1338.82,-46.2892 1404.39,60.3857 1469.95,201.118 
  1535.52,321.864 1601.09,420.711 1666.66,497.405 1732.22,551.82 1797.79,534.006 1863.36,542.037 1928.92,529.305 1994.49,494.596 2060.06,444.192 2125.62,408.927 
  
  "></polyline>
<circle clip-path="url(#clip802)" cx="371.924" cy="155.956" r="7.2" fill="#0000ff" fill-rule="evenodd" fill-opacity="1" stroke="#000000" stroke-opacity="1" stroke-width="3.2"></circle>
<circle clip-path="url(#clip802)" cx="436.818" cy="247.504" r="7.2" fill="#0000ff" fill-rule="evenodd" fill-opacity="1" stroke="#000000" stroke-opacity="1" stroke-width="3.2"></circle>
<circle clip-path="url(#clip802)" cx="501.713" cy="318.699" r="7.2" fill="#0000ff" fill-rule="evenodd" fill-opacity="1" stroke="#000000" stroke-opacity="1" stroke-width="3.2"></circle>
<circle clip-path="url(#clip802)" cx="566.608" cy="369.202" r="7.2" fill="#0000ff" fill-rule="evenodd" fill-opacity="1" stroke="#000000" stroke-opacity="1" stroke-width="3.2"></circle>
<circle clip-path="url(#clip802)" cx="631.502" cy="399.447" r="7.2" fill="#0000ff" fill-rule="evenodd" fill-opacity="1" stroke="#000000" stroke-opacity="1" stroke-width="3.2"></circle>
<circle clip-path="url(#clip802)" cx="696.397" cy="408.927" r="7.2" fill="#0000ff" fill-rule="evenodd" fill-opacity="1" stroke="#000000" stroke-opacity="1" stroke-width="3.2"></circle>
<circle clip-path="url(#clip802)" cx="760.639" cy="399.404" r="7.2" fill="#0000ff" fill-rule="evenodd" fill-opacity="1" stroke="#000000" stroke-opacity="1" stroke-width="3.2"></circle>
<circle clip-path="url(#clip802)" cx="824.881" cy="370.374" r="7.2" fill="#0000ff" fill-rule="evenodd" fill-opacity="1" stroke="#000000" stroke-opacity="1" stroke-width="3.2"></circle>
<circle clip-path="url(#clip802)" cx="889.124" cy="320.92" r="7.2" fill="#0000ff" fill-rule="evenodd" fill-opacity="1" stroke="#000000" stroke-opacity="1" stroke-width="3.2"></circle>
<circle clip-path="url(#clip802)" cx="953.366" cy="252.65" r="7.2" fill="#0000ff" fill-rule="evenodd" fill-opacity="1" stroke="#000000" stroke-opacity="1" stroke-width="3.2"></circle>
<circle clip-path="url(#clip802)" cx="1017.61" cy="186.584" r="7.2" fill="#0000ff" fill-rule="evenodd" fill-opacity="1" stroke="#000000" stroke-opacity="1" stroke-width="3.2"></circle>
<circle clip-path="url(#clip802)" cx="1081.85" cy="175.552" r="7.2" fill="#0000ff" fill-rule="evenodd" fill-opacity="1" stroke="#000000" stroke-opacity="1" stroke-width="3.2"></circle>
<circle clip-path="url(#clip802)" cx="1146.09" cy="142.565" r="7.2" fill="#0000ff" fill-rule="evenodd" fill-opacity="1" stroke="#000000" stroke-opacity="1" stroke-width="3.2"></circle>
<circle clip-path="url(#clip802)" cx="1210.34" cy="88.1353" r="7.2" fill="#0000ff" fill-rule="evenodd" fill-opacity="1" stroke="#000000" stroke-opacity="1" stroke-width="3.2"></circle>
<circle clip-path="url(#clip802)" cx="1404.39" cy="60.3857" r="7.2" fill="#0000ff" fill-rule="evenodd" fill-opacity="1" stroke="#000000" stroke-opacity="1" stroke-width="3.2"></circle>
<circle clip-path="url(#clip802)" cx="1469.95" cy="201.118" r="7.2" fill="#0000ff" fill-rule="evenodd" fill-opacity="1" stroke="#000000" stroke-opacity="1" stroke-width="3.2"></circle>
<circle clip-path="url(#clip802)" cx="1535.52" cy="321.864" r="7.2" fill="#0000ff" fill-rule="evenodd" fill-opacity="1" stroke="#000000" stroke-opacity="1" stroke-width="3.2"></circle>
<circle clip-path="url(#clip802)" cx="1601.09" cy="420.711" r="7.2" fill="#0000ff" fill-rule="evenodd" fill-opacity="1" stroke="#000000" stroke-opacity="1" stroke-width="3.2"></circle>
<circle clip-path="url(#clip802)" cx="1666.66" cy="497.405" r="7.2" fill="#0000ff" fill-rule="evenodd" fill-opacity="1" stroke="#000000" stroke-opacity="1" stroke-width="3.2"></circle>
<circle clip-path="url(#clip802)" cx="1732.22" cy="551.82" r="7.2" fill="#0000ff" fill-rule="evenodd" fill-opacity="1" stroke="#000000" stroke-opacity="1" stroke-width="3.2"></circle>
<circle clip-path="url(#clip802)" cx="1797.79" cy="534.006" r="7.2" fill="#0000ff" fill-rule="evenodd" fill-opacity="1" stroke="#000000" stroke-opacity="1" stroke-width="3.2"></circle>
<circle clip-path="url(#clip802)" cx="1863.36" cy="542.037" r="7.2" fill="#0000ff" fill-rule="evenodd" fill-opacity="1" stroke="#000000" stroke-opacity="1" stroke-width="3.2"></circle>
<circle clip-path="url(#clip802)" cx="1928.92" cy="529.305" r="7.2" fill="#0000ff" fill-rule="evenodd" fill-opacity="1" stroke="#000000" stroke-opacity="1" stroke-width="3.2"></circle>
<circle clip-path="url(#clip802)" cx="1994.49" cy="494.596" r="7.2" fill="#0000ff" fill-rule="evenodd" fill-opacity="1" stroke="#000000" stroke-opacity="1" stroke-width="3.2"></circle>
<circle clip-path="url(#clip802)" cx="2060.06" cy="444.192" r="7.2" fill="#0000ff" fill-rule="evenodd" fill-opacity="1" stroke="#000000" stroke-opacity="1" stroke-width="3.2"></circle>
<circle clip-path="url(#clip802)" cx="2125.62" cy="408.927" r="7.2" fill="#0000ff" fill-rule="evenodd" fill-opacity="1" stroke="#000000" stroke-opacity="1" stroke-width="3.2"></circle>
<polyline clip-path="url(#clip802)" style="stroke:#0000ff; stroke-linecap:round; stroke-linejoin:round; stroke-width:4; stroke-opacity:1; fill:none" points="
  2125.62,551.82 2201.34,450.031 2277.05,319.269 2352.76,186.584 
  "></polyline>
<circle clip-path="url(#clip802)" cx="2125.62" cy="551.82" r="7.2" fill="#0000ff" fill-rule="evenodd" fill-opacity="1" stroke="#000000" stroke-opacity="1" stroke-width="3.2"></circle>
<circle clip-path="url(#clip802)" cx="2201.34" cy="450.031" r="7.2" fill="#0000ff" fill-rule="evenodd" fill-opacity="1" stroke="#000000" stroke-opacity="1" stroke-width="3.2"></circle>
<circle clip-path="url(#clip802)" cx="2277.05" cy="319.269" r="7.2" fill="#0000ff" fill-rule="evenodd" fill-opacity="1" stroke="#000000" stroke-opacity="1" stroke-width="3.2"></circle>
<circle clip-path="url(#clip802)" cx="2352.76" cy="186.584" r="7.2" fill="#0000ff" fill-rule="evenodd" fill-opacity="1" stroke="#000000" stroke-opacity="1" stroke-width="3.2"></circle>
<polyline clip-path="url(#clip802)" style="stroke:#0000ff; stroke-linecap:round; stroke-linejoin:round; stroke-width:4; stroke-opacity:1; fill:none" points="
  242.135,-46.2895 307.029,18.6901 371.924,143.909 436.818,246.659 501.713,318.699 566.608,369.202 631.502,399.447 696.397,408.927 760.639,375.432 824.881,333.215 
  889.124,272.968 953.366,193.446 1017.61,129.181 1081.85,119.98 1146.09,93.9786 1210.34,51.3402 1274.58,-4.99414 1338.82,-46.2892 1404.39,18.5501 1469.95,129.14 
  1535.52,239.43 1601.09,338.224 1666.66,417.359 1732.22,461.269 1797.79,369.929 1863.36,208.846 1928.92,54.204 1994.49,198.185 2060.06,319.622 2125.62,408.927 
  
  "></polyline>
<circle clip-path="url(#clip802)" cx="371.924" cy="143.909" r="7.2" fill="#0000ff" fill-rule="evenodd" fill-opacity="1" stroke="#000000" stroke-opacity="1" stroke-width="3.2"></circle>
<circle clip-path="url(#clip802)" cx="436.818" cy="246.659" r="7.2" fill="#0000ff" fill-rule="evenodd" fill-opacity="1" stroke="#000000" stroke-opacity="1" stroke-width="3.2"></circle>
<circle clip-path="url(#clip802)" cx="501.713" cy="318.699" r="7.2" fill="#0000ff" fill-rule="evenodd" fill-opacity="1" stroke="#000000" stroke-opacity="1" stroke-width="3.2"></circle>
<circle clip-path="url(#clip802)" cx="566.608" cy="369.202" r="7.2" fill="#0000ff" fill-rule="evenodd" fill-opacity="1" stroke="#000000" stroke-opacity="1" stroke-width="3.2"></circle>
<circle clip-path="url(#clip802)" cx="631.502" cy="399.447" r="7.2" fill="#0000ff" fill-rule="evenodd" fill-opacity="1" stroke="#000000" stroke-opacity="1" stroke-width="3.2"></circle>
<circle clip-path="url(#clip802)" cx="696.397" cy="408.927" r="7.2" fill="#0000ff" fill-rule="evenodd" fill-opacity="1" stroke="#000000" stroke-opacity="1" stroke-width="3.2"></circle>
<circle clip-path="url(#clip802)" cx="760.639" cy="375.432" r="7.2" fill="#0000ff" fill-rule="evenodd" fill-opacity="1" stroke="#000000" stroke-opacity="1" stroke-width="3.2"></circle>
<circle clip-path="url(#clip802)" cx="824.881" cy="333.215" r="7.2" fill="#0000ff" fill-rule="evenodd" fill-opacity="1" stroke="#000000" stroke-opacity="1" stroke-width="3.2"></circle>
<circle clip-path="url(#clip802)" cx="889.124" cy="272.968" r="7.2" fill="#0000ff" fill-rule="evenodd" fill-opacity="1" stroke="#000000" stroke-opacity="1" stroke-width="3.2"></circle>
<circle clip-path="url(#clip802)" cx="953.366" cy="193.446" r="7.2" fill="#0000ff" fill-rule="evenodd" fill-opacity="1" stroke="#000000" stroke-opacity="1" stroke-width="3.2"></circle>
<circle clip-path="url(#clip802)" cx="1017.61" cy="129.181" r="7.2" fill="#0000ff" fill-rule="evenodd" fill-opacity="1" stroke="#000000" stroke-opacity="1" stroke-width="3.2"></circle>
<circle clip-path="url(#clip802)" cx="1081.85" cy="119.98" r="7.2" fill="#0000ff" fill-rule="evenodd" fill-opacity="1" stroke="#000000" stroke-opacity="1" stroke-width="3.2"></circle>
<circle clip-path="url(#clip802)" cx="1146.09" cy="93.9786" r="7.2" fill="#0000ff" fill-rule="evenodd" fill-opacity="1" stroke="#000000" stroke-opacity="1" stroke-width="3.2"></circle>
<circle clip-path="url(#clip802)" cx="1210.34" cy="51.3402" r="7.2" fill="#0000ff" fill-rule="evenodd" fill-opacity="1" stroke="#000000" stroke-opacity="1" stroke-width="3.2"></circle>
<circle clip-path="url(#clip802)" cx="1469.95" cy="129.14" r="7.2" fill="#0000ff" fill-rule="evenodd" fill-opacity="1" stroke="#000000" stroke-opacity="1" stroke-width="3.2"></circle>
<circle clip-path="url(#clip802)" cx="1535.52" cy="239.43" r="7.2" fill="#0000ff" fill-rule="evenodd" fill-opacity="1" stroke="#000000" stroke-opacity="1" stroke-width="3.2"></circle>
<circle clip-path="url(#clip802)" cx="1601.09" cy="338.224" r="7.2" fill="#0000ff" fill-rule="evenodd" fill-opacity="1" stroke="#000000" stroke-opacity="1" stroke-width="3.2"></circle>
<circle clip-path="url(#clip802)" cx="1666.66" cy="417.359" r="7.2" fill="#0000ff" fill-rule="evenodd" fill-opacity="1" stroke="#000000" stroke-opacity="1" stroke-width="3.2"></circle>
<circle clip-path="url(#clip802)" cx="1732.22" cy="461.269" r="7.2" fill="#0000ff" fill-rule="evenodd" fill-opacity="1" stroke="#000000" stroke-opacity="1" stroke-width="3.2"></circle>
<circle clip-path="url(#clip802)" cx="1797.79" cy="369.929" r="7.2" fill="#0000ff" fill-rule="evenodd" fill-opacity="1" stroke="#000000" stroke-opacity="1" stroke-width="3.2"></circle>
<circle clip-path="url(#clip802)" cx="1863.36" cy="208.846" r="7.2" fill="#0000ff" fill-rule="evenodd" fill-opacity="1" stroke="#000000" stroke-opacity="1" stroke-width="3.2"></circle>
<circle clip-path="url(#clip802)" cx="1928.92" cy="54.204" r="7.2" fill="#0000ff" fill-rule="evenodd" fill-opacity="1" stroke="#000000" stroke-opacity="1" stroke-width="3.2"></circle>
<circle clip-path="url(#clip802)" cx="1994.49" cy="198.185" r="7.2" fill="#0000ff" fill-rule="evenodd" fill-opacity="1" stroke="#000000" stroke-opacity="1" stroke-width="3.2"></circle>
<circle clip-path="url(#clip802)" cx="2060.06" cy="319.622" r="7.2" fill="#0000ff" fill-rule="evenodd" fill-opacity="1" stroke="#000000" stroke-opacity="1" stroke-width="3.2"></circle>
<circle clip-path="url(#clip802)" cx="2125.62" cy="408.927" r="7.2" fill="#0000ff" fill-rule="evenodd" fill-opacity="1" stroke="#000000" stroke-opacity="1" stroke-width="3.2"></circle>
<polyline clip-path="url(#clip802)" style="stroke:#0000ff; stroke-linecap:round; stroke-linejoin:round; stroke-width:4; stroke-opacity:1; fill:none" points="
  2125.62,461.269 2201.34,386.406 2277.05,255.864 2352.76,129.181 
  "></polyline>
<circle clip-path="url(#clip802)" cx="2125.62" cy="461.269" r="7.2" fill="#0000ff" fill-rule="evenodd" fill-opacity="1" stroke="#000000" stroke-opacity="1" stroke-width="3.2"></circle>
<circle clip-path="url(#clip802)" cx="2201.34" cy="386.406" r="7.2" fill="#0000ff" fill-rule="evenodd" fill-opacity="1" stroke="#000000" stroke-opacity="1" stroke-width="3.2"></circle>
<circle clip-path="url(#clip802)" cx="2277.05" cy="255.864" r="7.2" fill="#0000ff" fill-rule="evenodd" fill-opacity="1" stroke="#000000" stroke-opacity="1" stroke-width="3.2"></circle>
<circle clip-path="url(#clip802)" cx="2352.76" cy="129.181" r="7.2" fill="#0000ff" fill-rule="evenodd" fill-opacity="1" stroke="#000000" stroke-opacity="1" stroke-width="3.2"></circle>
<polyline clip-path="url(#clip802)" style="stroke:#0000ff; stroke-linecap:round; stroke-linejoin:round; stroke-width:4; stroke-opacity:1; fill:none" points="
  242.135,-112.921 307.029,-56.0265 371.924,36.4451 436.818,128.22 501.713,208.893 566.608,272.939 631.502,327.205 696.397,408.927 760.639,302.374 824.881,164.611 
  889.124,4.74054 953.366,41.9748 1017.61,119.613 1081.85,109.357 1146.09,79.5917 1210.34,29.4567 1274.58,-40.389 1338.82,-112.921 1404.39,-93.7357 1469.95,-126.392 
  1535.52,-183.107 1601.09,-261.655 1666.66,-355.743 1732.22,-419.153 1797.79,-294.951 1863.36,-111.846 1928.92,54.204 1994.49,198.185 2060.06,319.622 2125.62,408.927 
  
  "></polyline>
<circle clip-path="url(#clip802)" cx="436.818" cy="128.22" r="7.2" fill="#0000ff" fill-rule="evenodd" fill-opacity="1" stroke="#000000" stroke-opacity="1" stroke-width="3.2"></circle>
<circle clip-path="url(#clip802)" cx="501.713" cy="208.893" r="7.2" fill="#0000ff" fill-rule="evenodd" fill-opacity="1" stroke="#000000" stroke-opacity="1" stroke-width="3.2"></circle>
<circle clip-path="url(#clip802)" cx="566.608" cy="272.939" r="7.2" fill="#0000ff" fill-rule="evenodd" fill-opacity="1" stroke="#000000" stroke-opacity="1" stroke-width="3.2"></circle>
<circle clip-path="url(#clip802)" cx="631.502" cy="327.205" r="7.2" fill="#0000ff" fill-rule="evenodd" fill-opacity="1" stroke="#000000" stroke-opacity="1" stroke-width="3.2"></circle>
<circle clip-path="url(#clip802)" cx="696.397" cy="408.927" r="7.2" fill="#0000ff" fill-rule="evenodd" fill-opacity="1" stroke="#000000" stroke-opacity="1" stroke-width="3.2"></circle>
<circle clip-path="url(#clip802)" cx="760.639" cy="302.374" r="7.2" fill="#0000ff" fill-rule="evenodd" fill-opacity="1" stroke="#000000" stroke-opacity="1" stroke-width="3.2"></circle>
<circle clip-path="url(#clip802)" cx="824.881" cy="164.611" r="7.2" fill="#0000ff" fill-rule="evenodd" fill-opacity="1" stroke="#000000" stroke-opacity="1" stroke-width="3.2"></circle>
<circle clip-path="url(#clip802)" cx="1017.61" cy="119.613" r="7.2" fill="#0000ff" fill-rule="evenodd" fill-opacity="1" stroke="#000000" stroke-opacity="1" stroke-width="3.2"></circle>
<circle clip-path="url(#clip802)" cx="1081.85" cy="109.357" r="7.2" fill="#0000ff" fill-rule="evenodd" fill-opacity="1" stroke="#000000" stroke-opacity="1" stroke-width="3.2"></circle>
<circle clip-path="url(#clip802)" cx="1146.09" cy="79.5917" r="7.2" fill="#0000ff" fill-rule="evenodd" fill-opacity="1" stroke="#000000" stroke-opacity="1" stroke-width="3.2"></circle>
<circle clip-path="url(#clip802)" cx="1928.92" cy="54.204" r="7.2" fill="#0000ff" fill-rule="evenodd" fill-opacity="1" stroke="#000000" stroke-opacity="1" stroke-width="3.2"></circle>
<circle clip-path="url(#clip802)" cx="1994.49" cy="198.185" r="7.2" fill="#0000ff" fill-rule="evenodd" fill-opacity="1" stroke="#000000" stroke-opacity="1" stroke-width="3.2"></circle>
<circle clip-path="url(#clip802)" cx="2060.06" cy="319.622" r="7.2" fill="#0000ff" fill-rule="evenodd" fill-opacity="1" stroke="#000000" stroke-opacity="1" stroke-width="3.2"></circle>
<circle clip-path="url(#clip802)" cx="2125.62" cy="408.927" r="7.2" fill="#0000ff" fill-rule="evenodd" fill-opacity="1" stroke="#000000" stroke-opacity="1" stroke-width="3.2"></circle>
<polyline clip-path="url(#clip802)" style="stroke:#0000ff; stroke-linecap:round; stroke-linejoin:round; stroke-width:4; stroke-opacity:1; fill:none" points="
  2125.62,-419.153 2201.34,-263.379 2277.05,-43.1402 2352.76,119.613 
  "></polyline>
<circle clip-path="url(#clip802)" cx="2352.76" cy="119.613" r="7.2" fill="#0000ff" fill-rule="evenodd" fill-opacity="1" stroke="#000000" stroke-opacity="1" stroke-width="3.2"></circle>
<polyline clip-path="url(#clip802)" style="stroke:#0000ff; stroke-linecap:round; stroke-linejoin:round; stroke-width:4; stroke-opacity:1; fill:none" points="
  242.135,-112.921 307.029,-57.6346 371.924,-91.6538 436.818,-148.286 501.713,-159.399 566.608,23.229 631.502,181.536 696.397,248.352 760.639,192.987 824.881,75.1529 
  889.124,-59.0747 953.366,-32.3307 1017.61,55.5191 1081.85,44.5469 1146.09,13.4834 1210.34,-30.6596 1274.58,-70.0836 1338.82,-112.921 1404.39,-93.7357 1469.95,-126.392 
  1535.52,-183.107 1601.09,-261.655 1666.66,-355.743 1732.22,-419.153 1797.79,-294.951 1863.36,-111.846 1928.92,29.6251 1994.49,84.4457 2060.06,194.024 2125.62,248.352 
  
  "></polyline>
<circle clip-path="url(#clip802)" cx="631.502" cy="181.536" r="7.2" fill="#0000ff" fill-rule="evenodd" fill-opacity="1" stroke="#000000" stroke-opacity="1" stroke-width="3.2"></circle>
<circle clip-path="url(#clip802)" cx="696.397" cy="248.352" r="7.2" fill="#0000ff" fill-rule="evenodd" fill-opacity="1" stroke="#000000" stroke-opacity="1" stroke-width="3.2"></circle>
<circle clip-path="url(#clip802)" cx="760.639" cy="192.987" r="7.2" fill="#0000ff" fill-rule="evenodd" fill-opacity="1" stroke="#000000" stroke-opacity="1" stroke-width="3.2"></circle>
<circle clip-path="url(#clip802)" cx="824.881" cy="75.1529" r="7.2" fill="#0000ff" fill-rule="evenodd" fill-opacity="1" stroke="#000000" stroke-opacity="1" stroke-width="3.2"></circle>
<circle clip-path="url(#clip802)" cx="1017.61" cy="55.5191" r="7.2" fill="#0000ff" fill-rule="evenodd" fill-opacity="1" stroke="#000000" stroke-opacity="1" stroke-width="3.2"></circle>
<circle clip-path="url(#clip802)" cx="1994.49" cy="84.4457" r="7.2" fill="#0000ff" fill-rule="evenodd" fill-opacity="1" stroke="#000000" stroke-opacity="1" stroke-width="3.2"></circle>
<circle clip-path="url(#clip802)" cx="2060.06" cy="194.024" r="7.2" fill="#0000ff" fill-rule="evenodd" fill-opacity="1" stroke="#000000" stroke-opacity="1" stroke-width="3.2"></circle>
<circle clip-path="url(#clip802)" cx="2125.62" cy="248.352" r="7.2" fill="#0000ff" fill-rule="evenodd" fill-opacity="1" stroke="#000000" stroke-opacity="1" stroke-width="3.2"></circle>
<polyline clip-path="url(#clip802)" style="stroke:#0000ff; stroke-linecap:round; stroke-linejoin:round; stroke-width:4; stroke-opacity:1; fill:none" points="
  2125.62,-419.153 2201.34,-279.71 2277.05,-91.4246 2352.76,55.5191 
  "></polyline>
<circle clip-path="url(#clip802)" cx="2352.76" cy="55.5191" r="7.2" fill="#0000ff" fill-rule="evenodd" fill-opacity="1" stroke="#000000" stroke-opacity="1" stroke-width="3.2"></circle>
<polyline clip-path="url(#clip802)" style="stroke:#0000ff; stroke-linecap:round; stroke-linejoin:round; stroke-width:4; stroke-opacity:1; fill:none" points="
  242.135,-148.556 307.029,-169.985 371.924,-198.917 436.818,-246.362 501.713,-227.389 566.608,-328.573 631.502,-450.166 696.397,-557.976 760.639,-412.924 824.881,-241.516 
  889.124,-88.8373 953.366,-175.318 1017.61,-339.816 1081.85,-297.395 1146.09,-239.744 1210.34,-187.421 1274.58,-165.154 1338.82,-148.556 1404.39,-160.259 1469.95,-195.368 
  1535.52,-242.688 1601.09,-303.045 1666.66,-381.662 1732.22,-475.867 1797.79,-342.322 1863.36,-196.012 1928.92,-56.1562 1994.49,-179.583 2060.06,-390.235 2125.62,-557.976 
  
  "></polyline>
<polyline clip-path="url(#clip802)" style="stroke:#0000ff; stroke-linecap:round; stroke-linejoin:round; stroke-width:4; stroke-opacity:1; fill:none" points="
  2125.62,-475.867 2201.34,-389.335 2277.05,-353.142 2352.76,-339.816 
  "></polyline>
<polyline clip-path="url(#clip802)" style="stroke:#0000ff; stroke-linecap:round; stroke-linejoin:round; stroke-width:4; stroke-opacity:1; fill:none" points="
  242.135,-148.556 307.029,-169.985 371.924,-198.917 436.818,-246.362 501.713,-312.266 566.608,-396.232 631.502,-492.603 696.397,-557.976 760.639,-480.63 824.881,-337.081 
  889.124,-202.378 953.366,-259.353 1017.61,-419.663 1081.85,-321.03 1146.09,-241.529 1210.34,-196.25 1274.58,-169.538 1338.82,-148.556 1404.39,-174.022 1469.95,-199.289 
  1535.52,-242.688 1601.09,-303.045 1666.66,-381.662 1732.22,-475.867 1797.79,-473.143 1863.36,-469.223 1928.92,-478.68 1994.49,-503.407 2060.06,-537.404 2125.62,-557.976 
  
  "></polyline>
<polyline clip-path="url(#clip802)" style="stroke:#0000ff; stroke-linecap:round; stroke-linejoin:round; stroke-width:4; stroke-opacity:1; fill:none" points="
  2125.62,-475.867 2201.34,-466.074 2277.05,-433.32 2352.76,-419.663 
  "></polyline>
<polyline clip-path="url(#clip802)" style="stroke:#0000ff; stroke-linecap:round; stroke-linejoin:round; stroke-width:4; stroke-opacity:1; fill:none" points="
  242.135,-148.556 307.029,-202.649 371.924,-248.286 436.818,-277.592 501.713,-312.267 566.608,-396.232 631.502,-492.603 696.397,-557.976 760.639,-568.301 824.881,-598.863 
  889.124,-647.818 953.366,-604.326 1017.61,-424.453 1081.85,-506.998 1146.09,-486.686 1210.34,-346.779 1274.58,-230.697 1338.82,-148.556 1404.39,-174.022 1469.95,-199.289 
  1535.52,-253.88 1601.09,-335.788 1666.66,-441.083 1732.22,-475.867 1797.79,-473.143 1863.36,-469.223 1928.92,-478.68 1994.49,-503.407 2060.06,-537.404 2125.62,-557.976 
  
  "></polyline>
<polyline clip-path="url(#clip802)" style="stroke:#0000ff; stroke-linecap:round; stroke-linejoin:round; stroke-width:4; stroke-opacity:1; fill:none" points="
  2125.62,-475.867 2201.34,-475.066 2277.05,-437.871 2352.76,-424.453 
  "></polyline>
<polyline clip-path="url(#clip802)" style="stroke:#0000ff; stroke-linecap:round; stroke-linejoin:round; stroke-width:4; stroke-opacity:1; fill:none" points="
  242.135,-170.056 307.029,-272.384 371.924,-449.044 436.818,-472.4 501.713,-461.765 566.608,-554.85 631.502,-667.314 696.397,-649.6 760.639,-704.332 824.881,-738.017 
  889.124,-769.079 953.366,-626.03 1017.61,-452.291 1081.85,-539.581 1146.09,-513.406 1210.34,-372.511 1274.58,-232.005 1338.82,-170.056 1404.39,-212.088 1469.95,-277.884 
  1535.52,-355.307 1601.09,-445.054 1666.66,-533.988 1732.22,-569.745 1797.79,-581.955 1863.36,-569.278 1928.92,-579.227 1994.49,-614.101 2060.06,-664.96 2125.62,-649.6 
  
  "></polyline>
<polyline clip-path="url(#clip802)" style="stroke:#0000ff; stroke-linecap:round; stroke-linejoin:round; stroke-width:4; stroke-opacity:1; fill:none" points="
  2125.62,-569.745 2201.34,-494.695 2277.05,-462.043 2352.76,-452.291 
  "></polyline>
<polyline clip-path="url(#clip802)" style="stroke:#0000ff; stroke-linecap:round; stroke-linejoin:round; stroke-width:4; stroke-opacity:1; fill:none" points="
  242.135,-170.056 307.029,-272.384 371.924,-449.044 436.818,-650.285 501.713,-866.51 566.608,-958.452 631.502,-779.389 696.397,-740.883 760.639,-747.145 824.881,-764.432 
  889.124,-771.875 953.366,-707.941 1017.61,-744.985 1081.85,-639.852 1146.09,-538.79 1210.34,-380.141 1274.58,-250.46 1338.82,-170.056 1404.39,-312.775 1469.95,-522.228 
  1535.52,-715.474 1601.09,-659.287 1666.66,-592.957 1732.22,-569.745 1797.79,-636.327 1863.36,-767.964 1928.92,-885.655 1994.49,-859.284 2060.06,-778.801 2125.62,-740.883 
  
  "></polyline>
<polyline clip-path="url(#clip802)" style="stroke:#0000ff; stroke-linecap:round; stroke-linejoin:round; stroke-width:4; stroke-opacity:1; fill:none" points="
  2125.62,-569.745 2201.34,-621.472 2277.05,-699.317 2352.76,-744.985 
  "></polyline>
<polyline clip-path="url(#clip802)" style="stroke:#0000ff; stroke-linecap:round; stroke-linejoin:round; stroke-width:4; stroke-opacity:1; fill:none" points="
  242.135,-170.056 307.029,-302.759 371.924,-495.603 436.818,-650.285 501.713,-866.51 566.608,-958.452 631.502,-823.623 696.397,-740.883 760.639,-748.149 824.881,-773.175 
  889.124,-788.064 953.366,-856.765 1017.61,-900.285 1081.85,-728.167 1146.09,-640.415 1210.34,-527.508 1274.58,-325.194 1338.82,-170.056 1404.39,-312.775 1469.95,-522.228 
  1535.52,-715.474 1601.09,-659.287 1666.66,-598.297 1732.22,-569.745 1797.79,-636.327 1863.36,-767.964 1928.92,-885.655 1994.49,-859.284 2060.06,-778.801 2125.62,-740.883 
  
  "></polyline>
<polyline clip-path="url(#clip802)" style="stroke:#0000ff; stroke-linecap:round; stroke-linejoin:round; stroke-width:4; stroke-opacity:1; fill:none" points="
  2125.62,-569.745 2201.34,-630.222 2277.05,-757.899 2352.76,-900.285 
  "></polyline>
<polyline clip-path="url(#clip802)" style="stroke:#0000ff; stroke-linecap:round; stroke-linejoin:round; stroke-width:4; stroke-opacity:1; fill:none" points="
  242.135,-549.579 307.029,-595.246 371.924,-652.598 436.818,-710.383 501.713,-944.548 566.608,-966.588 631.502,-823.623 696.397,-740.883 760.639,-860.039 824.881,-1078.55 
  889.124,-909.216 953.366,-877.837 1017.61,-928.384 1081.85,-750.005 1146.09,-684.279 1210.34,-705.569 1274.58,-595.187 1338.82,-549.579 1404.39,-596.935 1469.95,-703.688 
  1535.52,-760.519 1601.09,-691.355 1666.66,-598.297 1732.22,-589.994 1797.79,-675.96 1863.36,-837.366 1928.92,-1027.19 1994.49,-975.076 2060.06,-827.745 2125.62,-740.883 
  
  "></polyline>
<polyline clip-path="url(#clip802)" style="stroke:#0000ff; stroke-linecap:round; stroke-linejoin:round; stroke-width:4; stroke-opacity:1; fill:none" points="
  2125.62,-589.994 2201.34,-670.74 2277.05,-797.301 2352.76,-928.384 
  "></polyline>
<polyline clip-path="url(#clip802)" style="stroke:#0000ff; stroke-linecap:round; stroke-linejoin:round; stroke-width:4; stroke-opacity:1; fill:none" points="
  242.135,-1076.85 307.029,-911.697 371.924,-730.847 436.818,-861.734 501.713,-1021.03 566.608,-1166.56 631.502,-1046.02 696.397,-960.817 760.639,-1053.18 824.881,-1127.18 
  889.124,-960.186 953.366,-957.357 1017.61,-952.751 1081.85,-937.538 1146.09,-786.294 1210.34,-804.375 1274.58,-960.111 1338.82,-1076.85 1404.39,-990.019 1469.95,-868.204 
  1535.52,-801.966 1601.09,-1006.56 1666.66,-777.996 1732.22,-589.994 1797.79,-675.96 1863.36,-837.366 1928.92,-1027.19 1994.49,-1177.52 2060.06,-1061.93 2125.62,-960.817 
  
  "></polyline>
<polyline clip-path="url(#clip802)" style="stroke:#0000ff; stroke-linecap:round; stroke-linejoin:round; stroke-width:4; stroke-opacity:1; fill:none" points="
  2125.62,-589.994 2201.34,-701.59 2277.05,-859.529 2352.76,-952.751 
  "></polyline>
<polyline clip-path="url(#clip802)" style="stroke:#0000ff; stroke-linecap:round; stroke-linejoin:round; stroke-width:4; stroke-opacity:1; fill:none" points="
  242.135,-1076.85 307.029,-1087.75 371.924,-1120.37 436.818,-1174.51 501.713,-1175.66 566.608,-1166.56 631.502,-1341.03 696.397,-1414.91 760.639,-1338.2 824.881,-1129.37 
  889.124,-1134.87 953.366,-1011.15 1017.61,-968.038 1081.85,-1088.14 1146.09,-929.237 1210.34,-894.491 1274.58,-1017.46 1338.82,-1076.85 1404.39,-990.019 1469.95,-868.204 
  1535.52,-801.966 1601.09,-1006.56 1666.66,-777.996 1732.22,-589.994 1797.79,-721.741 1863.36,-896.996 1928.92,-1091.38 1994.49,-1177.52 2060.06,-1340.25 2125.62,-1414.91 
  
  "></polyline>
<polyline clip-path="url(#clip802)" style="stroke:#0000ff; stroke-linecap:round; stroke-linejoin:round; stroke-width:4; stroke-opacity:1; fill:none" points="
  2125.62,-589.994 2201.34,-824.29 2277.05,-1099.09 2352.76,-968.038 
  "></polyline>
<polyline clip-path="url(#clip802)" style="stroke:#0000ff; stroke-linecap:round; stroke-linejoin:round; stroke-width:4; stroke-opacity:1; fill:none" points="
  242.135,-1267.51 307.029,-1274.23 371.924,-1292.02 436.818,-1295.85 501.713,-1186.46 566.608,-1177.23 631.502,-1359.83 696.397,-1414.91 760.639,-1342.61 824.881,-1248.5 
  889.124,-1171.86 953.366,-1058.64 1017.61,-991.696 1081.85,-1127.43 1146.09,-1254.97 1210.34,-1252.62 1274.58,-1238.74 1338.82,-1267.51 1404.39,-1172.54 1469.95,-1051.05 
  1535.52,-1031.12 1601.09,-1059.83 1666.66,-979.645 1732.22,-912.163 1797.79,-967.498 1863.36,-1067.61 1928.92,-1095.32 1994.49,-1241.41 2060.06,-1340.25 2125.62,-1414.91 
  
  "></polyline>
<polyline clip-path="url(#clip802)" style="stroke:#0000ff; stroke-linecap:round; stroke-linejoin:round; stroke-width:4; stroke-opacity:1; fill:none" points="
  2125.62,-912.163 2201.34,-996.304 2277.05,-1128.12 2352.76,-991.696 
  "></polyline>
<polyline clip-path="url(#clip802)" style="stroke:#0000ff; stroke-linecap:round; stroke-linejoin:round; stroke-width:4; stroke-opacity:1; fill:none" points="
  242.135,-1267.51 307.029,-1274.23 371.924,-1292.02 436.818,-1295.85 501.713,-1186.46 566.608,-1185.65 631.502,-1402.21 696.397,-1577.93 760.639,-1448.84 824.881,-1287.75 
  889.124,-1215.56 953.366,-1111.7 1017.61,-1063.49 1081.85,-1172.92 1146.09,-1295.27 1210.34,-1288.49 1274.58,-1273.8 1338.82,-1267.51 1404.39,-1374.15 1469.95,-1536.37 
  1535.52,-1318.67 1601.09,-1059.83 1666.66,-1306.51 1732.22,-1479.3 1797.79,-1359.84 1863.36,-1202.38 1928.92,-1098.86 1994.49,-1241.41 2060.06,-1447.41 2125.62,-1577.93 
  
  "></polyline>
<polyline clip-path="url(#clip802)" style="stroke:#0000ff; stroke-linecap:round; stroke-linejoin:round; stroke-width:4; stroke-opacity:1; fill:none" points="
  2125.62,-1479.3 2201.34,-1313.81 2277.05,-1151.23 2352.76,-1063.49 
  "></polyline>
<polyline clip-path="url(#clip802)" style="stroke:#0000ff; stroke-linecap:round; stroke-linejoin:round; stroke-width:4; stroke-opacity:1; fill:none" points="
  242.135,-1267.51 307.029,-1319.73 371.924,-1363.68 436.818,-1398.69 501.713,-1250.38 566.608,-1208.05 631.502,-1402.21 696.397,-1577.93 760.639,-1455.47 824.881,-1350.81 
  889.124,-1271.41 953.366,-1188.38 1017.61,-1139.65 1081.85,-1174.99 1146.09,-1413.61 1210.34,-1587.41 1274.58,-1404.26 1338.82,-1267.51 1404.39,-1374.15 1469.95,-1536.37 
  1535.52,-1318.67 1601.09,-1130.55 1666.66,-1306.51 1732.22,-1479.3 1797.79,-1359.84 1863.36,-1202.38 1928.92,-1098.86 1994.49,-1272.25 2060.06,-1447.41 2125.62,-1577.93 
  
  "></polyline>
<polyline clip-path="url(#clip802)" style="stroke:#0000ff; stroke-linecap:round; stroke-linejoin:round; stroke-width:4; stroke-opacity:1; fill:none" points="
  2125.62,-1479.3 2201.34,-1358.3 2277.05,-1156.97 2352.76,-1139.65 
  "></polyline>
<polyline clip-path="url(#clip802)" style="stroke:#0000ff; stroke-linecap:round; stroke-linejoin:round; stroke-width:4; stroke-opacity:1; fill:none" points="
  242.135,-1461.27 307.029,-1605.37 371.924,-1629.74 436.818,-1401 501.713,-1344.64 566.608,-1354.84 631.502,-1543.75 696.397,-1577.93 760.639,-1508.98 824.881,-1354.79 
  889.124,-1367.83 953.366,-1382.93 1017.61,-1366.09 1081.85,-1300.1 1146.09,-1429.84 1210.34,-1595.25 1274.58,-1577.39 1338.82,-1461.27 1404.39,-1573.18 1469.95,-1562 
  1535.52,-1343.61 1601.09,-1180.32 1666.66,-1347.57 1732.22,-1479.3 1797.79,-1475.1 1863.36,-1359.98 1928.92,-1303.8 1994.49,-1316.09 2060.06,-1511.9 2125.62,-1577.93 
  
  "></polyline>
<polyline clip-path="url(#clip802)" style="stroke:#0000ff; stroke-linecap:round; stroke-linejoin:round; stroke-width:4; stroke-opacity:1; fill:none" points="
  2125.62,-1479.3 2201.34,-1359.05 2277.05,-1190.81 2352.76,-1366.09 
  "></polyline>
<polyline clip-path="url(#clip802)" style="stroke:#0000ff; stroke-linecap:round; stroke-linejoin:round; stroke-width:4; stroke-opacity:1; fill:none" points="
  242.135,-1925.48 307.029,-1827.17 371.924,-1668.71 436.818,-1486.85 501.713,-1456.17 566.608,-1522.47 631.502,-1589.79 696.397,-1707.68 760.639,-1536.09 824.881,-1365.21 
  889.124,-1429.7 953.366,-1499.01 1017.61,-1487.89 1081.85,-1443.93 1146.09,-1431.38 1210.34,-1699.99 1274.58,-1800.53 1338.82,-1925.48 1404.39,-1790.4 1469.95,-1654.85 
  1535.52,-1712 1601.09,-1647.7 1666.66,-1580.99 1732.22,-1602.86 1797.79,-1520.05 1863.36,-1496.38 1928.92,-1498.83 1994.49,-1414.61 2060.06,-1555.05 2125.62,-1707.67 
  
  "></polyline>
<polyline clip-path="url(#clip802)" style="stroke:#0000ff; stroke-linecap:round; stroke-linejoin:round; stroke-width:4; stroke-opacity:1; fill:none" points="
  2125.62,-1602.86 2201.34,-1460.34 2277.05,-1353.23 2352.76,-1487.89 
  "></polyline>
<polyline clip-path="url(#clip802)" style="stroke:#0000ff; stroke-linecap:round; stroke-linejoin:round; stroke-width:4; stroke-opacity:1; fill:none" points="
  242.135,-1925.48 307.029,-1855.3 371.924,-1668.71 436.818,-1486.85 501.713,-1456.17 566.608,-1522.47 631.502,-1623.73 696.397,-1707.68 760.639,-1647 824.881,-1525.55 
  889.124,-1440.99 953.366,-1499.6 1017.61,-1488.22 1081.85,-1481.76 1146.09,-1562.41 1210.34,-1714.69 1274.58,-1867.96 1338.82,-1925.48 1404.39,-1889.89 1469.95,-1654.85 
  1535.52,-1712 1601.09,-1647.7 1666.66,-1580.99 1732.22,-1602.86 1797.79,-1520.05 1863.36,-1496.38 1928.92,-1498.83 1994.49,-1523.13 2060.06,-1594.53 2125.62,-1707.68 
  
  "></polyline>
<polyline clip-path="url(#clip802)" style="stroke:#0000ff; stroke-linecap:round; stroke-linejoin:round; stroke-width:4; stroke-opacity:1; fill:none" points="
  2125.62,-1602.86 2201.34,-1500.28 2277.05,-1445.9 2352.76,-1488.22 
  "></polyline>
<polyline clip-path="url(#clip802)" style="stroke:#0000ff; stroke-linecap:round; stroke-linejoin:round; stroke-width:4; stroke-opacity:1; fill:none" points="
  242.135,-1925.48 307.029,-1855.3 371.924,-1802.29 436.818,-1658.2 501.713,-1601.63 566.608,-1625.59 631.502,-1623.73 696.397,-1707.68 760.639,-1650.59 824.881,-1582.45 
  889.124,-1530.96 953.366,-1536.84 1017.61,-1564.52 1081.85,-1605.29 1146.09,-1735.24 1210.34,-1728.01 1274.58,-1898.78 1338.82,-1925.48 1404.39,-1889.9 1469.95,-1761.56 
  1535.52,-1779.6 1601.09,-1778.62 1666.66,-1696.77 1732.22,-1638.23 1797.79,-1602.97 1863.36,-1590.98 1928.92,-1532.11 1994.49,-1523.13 2060.06,-1594.53 2125.62,-1707.68 
  
  "></polyline>
<polyline clip-path="url(#clip802)" style="stroke:#0000ff; stroke-linecap:round; stroke-linejoin:round; stroke-width:4; stroke-opacity:1; fill:none" points="
  2125.62,-1638.23 2201.34,-1599.05 2277.05,-1567.77 2352.76,-1564.52 
  "></polyline>
<polyline clip-path="url(#clip802)" style="stroke:#000000; stroke-linecap:round; stroke-linejoin:round; stroke-width:4; stroke-opacity:1; fill:none" points="
  2125.62,2799.12 2125.62,-1328.69 
  "></polyline>
</svg>